M48
;Layer_Color=9474304
;FILE_FORMAT=2:3
INCH,LZ
;TYPE=PLATED
T1F00S00C0.012
T2F00S00C0.035
T3F00S00C0.051
%
T01
X00598Y01039
X00677
X00444Y00962
X00438Y00875
T02
X00421Y00146
X00521
X00621
X00721
X00821
X00921
X00185Y00875
Y00975
Y01075
T03
X0152Y00439
Y00577
Y00793
Y00931
Y01069
Y01207
X01524Y0139
Y01528
Y01665
Y01819
Y01957
Y02094
X01321Y02228
X01183
X00945
X00807
X00569
X00431
M30
