%FSLAX24Y24*%
%MOIN*%
G70*
G01*
G75*
G04 Layer_Physical_Order=1*
G04 Layer_Color=255*
%ADD10R,0.0433X0.0433*%
G04:AMPARAMS|DCode=11|XSize=23.6mil|YSize=39.4mil|CornerRadius=3mil|HoleSize=0mil|Usage=FLASHONLY|Rotation=180.000|XOffset=0mil|YOffset=0mil|HoleType=Round|Shape=RoundedRectangle|*
%AMROUNDEDRECTD11*
21,1,0.0236,0.0335,0,0,180.0*
21,1,0.0177,0.0394,0,0,180.0*
1,1,0.0059,-0.0089,0.0167*
1,1,0.0059,0.0089,0.0167*
1,1,0.0059,0.0089,-0.0167*
1,1,0.0059,-0.0089,-0.0167*
%
%ADD11ROUNDEDRECTD11*%
%ADD12R,0.0433X0.0433*%
%ADD13R,0.0295X0.0236*%
%ADD14O,0.0827X0.0138*%
G04:AMPARAMS|DCode=15|XSize=90.6mil|YSize=70.9mil|CornerRadius=8.9mil|HoleSize=0mil|Usage=FLASHONLY|Rotation=90.000|XOffset=0mil|YOffset=0mil|HoleType=Round|Shape=RoundedRectangle|*
%AMROUNDEDRECTD15*
21,1,0.0906,0.0532,0,0,90.0*
21,1,0.0728,0.0709,0,0,90.0*
1,1,0.0177,0.0266,0.0364*
1,1,0.0177,0.0266,-0.0364*
1,1,0.0177,-0.0266,-0.0364*
1,1,0.0177,-0.0266,0.0364*
%
%ADD15ROUNDEDRECTD15*%
G04:AMPARAMS|DCode=16|XSize=90.6mil|YSize=70.9mil|CornerRadius=8.9mil|HoleSize=0mil|Usage=FLASHONLY|Rotation=180.000|XOffset=0mil|YOffset=0mil|HoleType=Round|Shape=RoundedRectangle|*
%AMROUNDEDRECTD16*
21,1,0.0906,0.0532,0,0,180.0*
21,1,0.0728,0.0709,0,0,180.0*
1,1,0.0177,-0.0364,0.0266*
1,1,0.0177,0.0364,0.0266*
1,1,0.0177,0.0364,-0.0266*
1,1,0.0177,-0.0364,-0.0266*
%
%ADD16ROUNDEDRECTD16*%
G04:AMPARAMS|DCode=17|XSize=137.8mil|YSize=68.9mil|CornerRadius=8.6mil|HoleSize=0mil|Usage=FLASHONLY|Rotation=180.000|XOffset=0mil|YOffset=0mil|HoleType=Round|Shape=RoundedRectangle|*
%AMROUNDEDRECTD17*
21,1,0.1378,0.0517,0,0,180.0*
21,1,0.1206,0.0689,0,0,180.0*
1,1,0.0172,-0.0603,0.0258*
1,1,0.0172,0.0603,0.0258*
1,1,0.0172,0.0603,-0.0258*
1,1,0.0172,-0.0603,-0.0258*
%
%ADD17ROUNDEDRECTD17*%
G04:AMPARAMS|DCode=18|XSize=43.3mil|YSize=68.9mil|CornerRadius=5.4mil|HoleSize=0mil|Usage=FLASHONLY|Rotation=180.000|XOffset=0mil|YOffset=0mil|HoleType=Round|Shape=RoundedRectangle|*
%AMROUNDEDRECTD18*
21,1,0.0433,0.0581,0,0,180.0*
21,1,0.0325,0.0689,0,0,180.0*
1,1,0.0108,-0.0162,0.0290*
1,1,0.0108,0.0162,0.0290*
1,1,0.0108,0.0162,-0.0290*
1,1,0.0108,-0.0162,-0.0290*
%
%ADD18ROUNDEDRECTD18*%
G04:AMPARAMS|DCode=19|XSize=43.3mil|YSize=68.9mil|CornerRadius=5.4mil|HoleSize=0mil|Usage=FLASHONLY|Rotation=180.000|XOffset=0mil|YOffset=0mil|HoleType=Round|Shape=RoundedRectangle|*
%AMROUNDEDRECTD19*
21,1,0.0433,0.0581,0,0,180.0*
21,1,0.0325,0.0689,0,0,180.0*
1,1,0.0108,-0.0162,0.0290*
1,1,0.0108,0.0162,0.0290*
1,1,0.0108,0.0162,-0.0290*
1,1,0.0108,-0.0162,-0.0290*
%
%ADD19ROUNDEDRECTD19*%
%ADD20C,0.0079*%
%ADD21C,0.0433*%
%ADD22C,0.0138*%
%ADD23C,0.1000*%
G04:AMPARAMS|DCode=24|XSize=100mil|YSize=100mil|CornerRadius=25mil|HoleSize=0mil|Usage=FLASHONLY|Rotation=90.000|XOffset=0mil|YOffset=0mil|HoleType=Round|Shape=RoundedRectangle|*
%AMROUNDEDRECTD24*
21,1,0.1000,0.0500,0,0,90.0*
21,1,0.0500,0.1000,0,0,90.0*
1,1,0.0500,0.0250,0.0250*
1,1,0.0500,0.0250,-0.0250*
1,1,0.0500,-0.0250,-0.0250*
1,1,0.0500,-0.0250,0.0250*
%
%ADD24ROUNDEDRECTD24*%
%ADD25C,0.2520*%
%ADD26R,0.0787X0.0591*%
%ADD27O,0.0787X0.0591*%
%ADD28R,0.0591X0.0591*%
%ADD29C,0.0591*%
G04:AMPARAMS|DCode=30|XSize=100mil|YSize=100mil|CornerRadius=25mil|HoleSize=0mil|Usage=FLASHONLY|Rotation=0.000|XOffset=0mil|YOffset=0mil|HoleType=Round|Shape=RoundedRectangle|*
%AMROUNDEDRECTD30*
21,1,0.1000,0.0500,0,0,0.0*
21,1,0.0500,0.1000,0,0,0.0*
1,1,0.0500,0.0250,-0.0250*
1,1,0.0500,-0.0250,-0.0250*
1,1,0.0500,-0.0250,0.0250*
1,1,0.0500,0.0250,0.0250*
%
%ADD30ROUNDEDRECTD30*%
%ADD31C,0.0276*%
G36*
X18167Y141D02*
X141D01*
Y25253D01*
X18167D01*
Y141D01*
D02*
G37*
%LPC*%
G36*
X11104Y8939D02*
X10837D01*
Y8672D01*
X11104D01*
Y8939D01*
D02*
G37*
G36*
X10737D02*
X10471D01*
Y8672D01*
X10737D01*
Y8939D01*
D02*
G37*
G36*
X13258Y10435D02*
X13081D01*
X13038Y10427D01*
X13003Y10403D01*
X12979Y10367D01*
X12970Y10325D01*
Y9990D01*
X12979Y9948D01*
X13003Y9912D01*
X13038Y9888D01*
X13049Y9886D01*
Y9636D01*
X13049Y9636D01*
X13058Y9590D01*
X13084Y9551D01*
X13409Y9226D01*
X13448Y9200D01*
X13494Y9191D01*
X13494Y9191D01*
X14629D01*
X14633Y9160D01*
X14691Y9019D01*
X14784Y8898D01*
X14905Y8805D01*
X15046Y8747D01*
X15197Y8727D01*
X15348Y8747D01*
X15489Y8805D01*
X15610Y8898D01*
X15702Y9019D01*
X15761Y9160D01*
X15781Y9311D01*
X15761Y9462D01*
X15702Y9603D01*
X15610Y9724D01*
X15489Y9817D01*
X15348Y9875D01*
X15197Y9895D01*
X15046Y9875D01*
X14905Y9817D01*
X14784Y9724D01*
X14691Y9603D01*
X14633Y9462D01*
X14629Y9431D01*
X13544D01*
X13290Y9686D01*
Y9886D01*
X13300Y9888D01*
X13336Y9912D01*
X13360Y9948D01*
X13368Y9990D01*
Y10325D01*
X13360Y10367D01*
X13336Y10403D01*
X13300Y10427D01*
X13258Y10435D01*
D02*
G37*
G36*
X13016Y9202D02*
X12845D01*
Y8953D01*
X12884D01*
X12934Y8963D01*
X12977Y8991D01*
X13006Y9034D01*
X13016Y9085D01*
Y9202D01*
D02*
G37*
G36*
X12745D02*
X12575D01*
Y9085D01*
X12585Y9034D01*
X12613Y8991D01*
X12656Y8963D01*
X12707Y8953D01*
X12745D01*
Y9202D01*
D02*
G37*
G36*
X7128Y8781D02*
X6861D01*
Y8515D01*
X7128D01*
Y8781D01*
D02*
G37*
G36*
X11104Y8572D02*
X10837D01*
Y8306D01*
X11104D01*
Y8572D01*
D02*
G37*
G36*
X10737D02*
X10471D01*
Y8306D01*
X10737D01*
Y8572D01*
D02*
G37*
G36*
X1949Y9125D02*
X1752D01*
X1654Y9112D01*
X1563Y9075D01*
X1485Y9015D01*
X1425Y8937D01*
X1388Y8846D01*
X1375Y8748D01*
X1388Y8650D01*
X1425Y8559D01*
X1485Y8481D01*
X1563Y8421D01*
X1654Y8384D01*
X1752Y8371D01*
X1949D01*
X2046Y8384D01*
X2137Y8421D01*
X2216Y8481D01*
X2276Y8559D01*
X2313Y8650D01*
X2326Y8748D01*
X2313Y8846D01*
X2276Y8937D01*
X2216Y9015D01*
X2137Y9075D01*
X2046Y9112D01*
X1949Y9125D01*
D02*
G37*
G36*
X6761Y8781D02*
X6494D01*
Y8515D01*
X6761D01*
Y8781D01*
D02*
G37*
G36*
X12510Y8565D02*
X12333D01*
X12290Y8557D01*
X12255Y8533D01*
X12231Y8497D01*
X12222Y8455D01*
Y8408D01*
X12083D01*
X12083Y8408D01*
X12037Y8399D01*
X11999Y8373D01*
X11977Y8377D01*
X11949Y8389D01*
Y8484D01*
X11358D01*
Y7894D01*
X11949D01*
Y8037D01*
X11984Y8069D01*
X12031Y8078D01*
X12070Y8104D01*
X12133Y8167D01*
X12222D01*
Y8120D01*
X12231Y8078D01*
X12255Y8042D01*
X12290Y8018D01*
X12333Y8010D01*
X12510D01*
X12552Y8018D01*
X12588Y8042D01*
X12612Y8078D01*
X12620Y8120D01*
Y8455D01*
X12612Y8497D01*
X12588Y8533D01*
X12552Y8557D01*
X12510Y8565D01*
D02*
G37*
G36*
X12745Y9551D02*
X12707D01*
X12656Y9541D01*
X12613Y9513D01*
X12585Y9470D01*
X12575Y9419D01*
Y9302D01*
X12745D01*
Y9551D01*
D02*
G37*
G36*
X12510Y10435D02*
X12333D01*
X12290Y10427D01*
X12255Y10403D01*
X12231Y10367D01*
X12222Y10325D01*
Y10278D01*
X12093D01*
X12093Y10278D01*
X12047Y10269D01*
X12007Y10243D01*
X11995Y10230D01*
X11949Y10249D01*
Y10335D01*
X11358D01*
Y9744D01*
X11949D01*
Y9881D01*
X11974Y9919D01*
X12021Y9928D01*
X12060Y9954D01*
X12142Y10037D01*
X12222D01*
Y9990D01*
X12231Y9948D01*
X12255Y9912D01*
X12290Y9888D01*
X12333Y9880D01*
X12510D01*
X12552Y9888D01*
X12588Y9912D01*
X12612Y9948D01*
X12620Y9990D01*
Y10325D01*
X12612Y10367D01*
X12588Y10403D01*
X12552Y10427D01*
X12510Y10435D01*
D02*
G37*
G36*
X11104Y10422D02*
X10837D01*
Y10156D01*
X11104D01*
Y10422D01*
D02*
G37*
G36*
X2323Y11122D02*
X1378D01*
Y10374D01*
X2323D01*
Y11122D01*
D02*
G37*
G36*
X11104Y10789D02*
X10837D01*
Y10522D01*
X11104D01*
Y10789D01*
D02*
G37*
G36*
X10737D02*
X10471D01*
Y10522D01*
X10737D01*
Y10789D01*
D02*
G37*
G36*
Y10422D02*
X10471D01*
Y10156D01*
X10737D01*
Y10422D01*
D02*
G37*
G36*
X1800Y9698D02*
X1360D01*
X1367Y9645D01*
X1407Y9549D01*
X1470Y9466D01*
X1553Y9403D01*
X1649Y9363D01*
X1752Y9349D01*
X1800D01*
Y9698D01*
D02*
G37*
G36*
X12884Y9551D02*
X12845D01*
Y9302D01*
X13016D01*
Y9419D01*
X13006Y9470D01*
X12977Y9513D01*
X12934Y9541D01*
X12884Y9551D01*
D02*
G37*
G36*
X2341Y9698D02*
X1900D01*
Y9349D01*
X1949D01*
X2052Y9363D01*
X2148Y9403D01*
X2231Y9466D01*
X2294Y9549D01*
X2334Y9645D01*
X2341Y9698D01*
D02*
G37*
G36*
X1949Y10147D02*
X1900D01*
Y9798D01*
X2341D01*
X2334Y9851D01*
X2294Y9947D01*
X2231Y10030D01*
X2148Y10093D01*
X2052Y10133D01*
X1949Y10147D01*
D02*
G37*
G36*
X1800D02*
X1752D01*
X1649Y10133D01*
X1553Y10093D01*
X1470Y10030D01*
X1407Y9947D01*
X1367Y9851D01*
X1360Y9798D01*
X1800D01*
Y10147D01*
D02*
G37*
G36*
X5263Y1849D02*
Y1507D01*
X5605D01*
X5598Y1560D01*
X5558Y1656D01*
X5494Y1739D01*
X5412Y1802D01*
X5316Y1842D01*
X5263Y1849D01*
D02*
G37*
G36*
X5163D02*
X5109Y1842D01*
X5013Y1802D01*
X4931Y1739D01*
X4867Y1656D01*
X4827Y1560D01*
X4820Y1507D01*
X5163D01*
Y1849D01*
D02*
G37*
G36*
X15147Y5718D02*
X14599D01*
X14606Y5650D01*
X14640Y5537D01*
X14696Y5433D01*
X14771Y5341D01*
X14862Y5266D01*
X14966Y5211D01*
X15079Y5176D01*
X15147Y5170D01*
Y5718D01*
D02*
G37*
G36*
Y6366D02*
X15079Y6359D01*
X14966Y6325D01*
X14862Y6269D01*
X14771Y6194D01*
X14696Y6103D01*
X14640Y5998D01*
X14606Y5885D01*
X14599Y5818D01*
X15147D01*
Y6366D01*
D02*
G37*
G36*
X15795Y5718D02*
X15247D01*
Y5170D01*
X15314Y5176D01*
X15428Y5211D01*
X15532Y5266D01*
X15623Y5341D01*
X15698Y5433D01*
X15754Y5537D01*
X15788Y5650D01*
X15795Y5718D01*
D02*
G37*
G36*
X9587Y1831D02*
X8839D01*
Y1083D01*
X9587D01*
Y1831D01*
D02*
G37*
G36*
X16535Y2918D02*
X16325Y2901D01*
X16121Y2852D01*
X15926Y2771D01*
X15746Y2661D01*
X15586Y2524D01*
X15449Y2364D01*
X15339Y2184D01*
X15258Y1990D01*
X15209Y1785D01*
X15193Y1575D01*
X15209Y1365D01*
X15258Y1160D01*
X15339Y965D01*
X15449Y786D01*
X15586Y625D01*
X15746Y489D01*
X15926Y378D01*
X16121Y298D01*
X16325Y249D01*
X16535Y232D01*
X16745Y249D01*
X16950Y298D01*
X17145Y378D01*
X17325Y489D01*
X17485Y625D01*
X17622Y786D01*
X17732Y965D01*
X17812Y1160D01*
X17862Y1365D01*
X17878Y1575D01*
X17862Y1785D01*
X17812Y1990D01*
X17732Y2184D01*
X17622Y2364D01*
X17485Y2524D01*
X17325Y2661D01*
X17145Y2771D01*
X16950Y2852D01*
X16745Y2901D01*
X16535Y2918D01*
D02*
G37*
G36*
X1575D02*
X1365Y2901D01*
X1160Y2852D01*
X965Y2771D01*
X786Y2661D01*
X625Y2524D01*
X489Y2364D01*
X378Y2184D01*
X298Y1990D01*
X249Y1785D01*
X232Y1575D01*
X249Y1365D01*
X298Y1160D01*
X378Y965D01*
X489Y786D01*
X625Y625D01*
X786Y489D01*
X965Y378D01*
X1160Y298D01*
X1365Y249D01*
X1575Y232D01*
X1785Y249D01*
X1990Y298D01*
X2184Y378D01*
X2364Y489D01*
X2524Y625D01*
X2661Y786D01*
X2771Y965D01*
X2852Y1160D01*
X2901Y1365D01*
X2918Y1575D01*
X2901Y1785D01*
X2852Y1990D01*
X2771Y2184D01*
X2661Y2364D01*
X2524Y2524D01*
X2364Y2661D01*
X2184Y2771D01*
X1990Y2852D01*
X1785Y2901D01*
X1575Y2918D01*
D02*
G37*
G36*
X5163Y1407D02*
X4820D01*
X4827Y1354D01*
X4867Y1257D01*
X4931Y1175D01*
X5013Y1111D01*
X5109Y1072D01*
X5163Y1065D01*
Y1407D01*
D02*
G37*
G36*
X8213Y1834D02*
X8115Y1821D01*
X8024Y1783D01*
X7946Y1723D01*
X7886Y1645D01*
X7848Y1554D01*
X7835Y1457D01*
X7848Y1359D01*
X7886Y1268D01*
X7946Y1190D01*
X8024Y1130D01*
X8115Y1092D01*
X8213Y1079D01*
X8310Y1092D01*
X8401Y1130D01*
X8479Y1190D01*
X8539Y1268D01*
X8577Y1359D01*
X8590Y1457D01*
X8577Y1554D01*
X8539Y1645D01*
X8479Y1723D01*
X8401Y1783D01*
X8310Y1821D01*
X8213Y1834D01*
D02*
G37*
G36*
X5605Y1407D02*
X5263D01*
Y1065D01*
X5316Y1072D01*
X5412Y1111D01*
X5494Y1175D01*
X5558Y1257D01*
X5598Y1354D01*
X5605Y1407D01*
D02*
G37*
G36*
X15247Y6366D02*
Y5818D01*
X15795D01*
X15788Y5885D01*
X15754Y5998D01*
X15698Y6103D01*
X15623Y6194D01*
X15532Y6269D01*
X15428Y6325D01*
X15314Y6359D01*
X15247Y6366D01*
D02*
G37*
G36*
X12745Y7681D02*
X12707D01*
X12656Y7671D01*
X12613Y7643D01*
X12585Y7600D01*
X12575Y7549D01*
Y7432D01*
X12745D01*
Y7681D01*
D02*
G37*
G36*
X13258Y8565D02*
X13081D01*
X13038Y8557D01*
X13003Y8533D01*
X12979Y8497D01*
X12970Y8455D01*
Y8120D01*
X12979Y8078D01*
X13003Y8042D01*
X13038Y8018D01*
X13081Y8010D01*
X13258D01*
X13274Y8013D01*
X13438Y7848D01*
X13478Y7822D01*
X13524Y7813D01*
X14615D01*
Y7683D01*
X14627Y7597D01*
X14660Y7517D01*
X14712Y7449D01*
X14781Y7396D01*
X14861Y7363D01*
X14947Y7351D01*
X15447D01*
X15533Y7363D01*
X15613Y7396D01*
X15681Y7449D01*
X15734Y7517D01*
X15767Y7597D01*
X15778Y7683D01*
Y8183D01*
X15767Y8269D01*
X15734Y8349D01*
X15681Y8418D01*
X15613Y8470D01*
X15533Y8503D01*
X15447Y8515D01*
X14947D01*
X14861Y8503D01*
X14781Y8470D01*
X14712Y8418D01*
X14660Y8349D01*
X14627Y8269D01*
X14615Y8183D01*
Y8054D01*
X13574D01*
X13368Y8259D01*
Y8455D01*
X13360Y8497D01*
X13336Y8533D01*
X13300Y8557D01*
X13258Y8565D01*
D02*
G37*
G36*
X12884Y7681D02*
X12845D01*
Y7432D01*
X13016D01*
Y7549D01*
X13006Y7600D01*
X12977Y7643D01*
X12934Y7671D01*
X12884Y7681D01*
D02*
G37*
G36*
X7128Y8415D02*
X6861D01*
Y8148D01*
X7128D01*
Y8415D01*
D02*
G37*
G36*
X6761D02*
X6494D01*
Y8148D01*
X6761D01*
Y8415D01*
D02*
G37*
G36*
X13016Y7332D02*
X12845D01*
Y7082D01*
X12884D01*
X12934Y7093D01*
X12977Y7121D01*
X13006Y7164D01*
X13016Y7215D01*
Y7332D01*
D02*
G37*
G36*
X11143Y6732D02*
X10877D01*
Y6465D01*
X11143D01*
Y6732D01*
D02*
G37*
G36*
X10777D02*
X10510D01*
Y6465D01*
X10777D01*
Y6732D01*
D02*
G37*
G36*
Y7098D02*
X10510D01*
Y6832D01*
X10777D01*
Y7098D01*
D02*
G37*
G36*
X12745Y7332D02*
X12575D01*
Y7215D01*
X12585Y7164D01*
X12613Y7121D01*
X12656Y7093D01*
X12707Y7082D01*
X12745D01*
Y7332D01*
D02*
G37*
G36*
X11143Y7098D02*
X10877D01*
Y6832D01*
X11143D01*
Y7098D01*
D02*
G37*
G36*
X12745Y11033D02*
X12575D01*
Y10915D01*
X12585Y10865D01*
X12613Y10822D01*
X12656Y10793D01*
X12707Y10783D01*
X12745D01*
Y11033D01*
D02*
G37*
G36*
X5639Y22233D02*
X5086D01*
Y22033D01*
X5098Y21942D01*
X5133Y21857D01*
X5189Y21784D01*
X5262Y21728D01*
X5348Y21692D01*
X5439Y21680D01*
X5639D01*
Y22233D01*
D02*
G37*
G36*
X15286Y21543D02*
Y20995D01*
X15834D01*
X15828Y21063D01*
X15793Y21176D01*
X15738Y21280D01*
X15663Y21371D01*
X15571Y21446D01*
X15467Y21502D01*
X15354Y21536D01*
X15286Y21543D01*
D02*
G37*
G36*
X6292Y22233D02*
X5739D01*
Y21680D01*
X5939D01*
X6030Y21692D01*
X6115Y21728D01*
X6189Y21784D01*
X6245Y21857D01*
X6280Y21942D01*
X6292Y22033D01*
Y22233D01*
D02*
G37*
G36*
X10052D02*
X9499D01*
Y21680D01*
X9699D01*
X9790Y21692D01*
X9875Y21728D01*
X9948Y21784D01*
X10005Y21857D01*
X10040Y21942D01*
X10052Y22033D01*
Y22233D01*
D02*
G37*
G36*
X9399D02*
X8846D01*
Y22033D01*
X8858Y21942D01*
X8893Y21857D01*
X8949Y21784D01*
X9022Y21728D01*
X9107Y21692D01*
X9199Y21680D01*
X9399D01*
Y22233D01*
D02*
G37*
G36*
X15186Y21543D02*
X15119Y21536D01*
X15006Y21502D01*
X14901Y21446D01*
X14810Y21371D01*
X14735Y21280D01*
X14679Y21176D01*
X14645Y21063D01*
X14638Y20995D01*
X15186D01*
Y21543D01*
D02*
G37*
G36*
X6029Y20580D02*
X5621D01*
Y20073D01*
X5837D01*
X5910Y20088D01*
X5973Y20130D01*
X6014Y20192D01*
X6029Y20266D01*
Y20580D01*
D02*
G37*
G36*
X4311Y22867D02*
X4160Y22847D01*
X4019Y22789D01*
X3898Y22696D01*
X3805Y22575D01*
X3747Y22435D01*
X3727Y22283D01*
X3747Y22132D01*
X3805Y21992D01*
X3898Y21871D01*
X4013Y21783D01*
Y21514D01*
X4023Y21437D01*
X4053Y21365D01*
X4100Y21304D01*
X4131Y21273D01*
Y21158D01*
X4098Y21152D01*
X4043Y21115D01*
X4006Y21059D01*
X3993Y20994D01*
Y20266D01*
X4006Y20200D01*
X4031Y20163D01*
X3884Y20017D01*
X3837Y19955D01*
X3807Y19883D01*
X3797Y19806D01*
Y19621D01*
X3797Y19621D01*
Y19040D01*
X3807Y18989D01*
X3836Y18945D01*
X3880Y18915D01*
X3932Y18905D01*
X4257D01*
X4309Y18915D01*
X4353Y18945D01*
X4382Y18989D01*
X4392Y19040D01*
Y19621D01*
X4392Y19621D01*
Y19683D01*
X4640Y19930D01*
X4640Y19930D01*
X4687Y19992D01*
X4717Y20064D01*
X4720Y20086D01*
X4759Y20108D01*
X4760Y20108D01*
X4767Y20112D01*
X4812Y20130D01*
X4845Y20130D01*
X5169D01*
X5169Y20130D01*
X5232Y20088D01*
X5305Y20073D01*
X5521D01*
Y20630D01*
Y21186D01*
X5305D01*
X5232Y21172D01*
X5169Y21130D01*
X5169Y21130D01*
X4800D01*
X4800Y21130D01*
X4767Y21148D01*
X4760Y21152D01*
X4760Y21152D01*
X4727Y21158D01*
Y21396D01*
X4727Y21396D01*
X4722Y21435D01*
X4717Y21473D01*
X4687Y21545D01*
X4640Y21607D01*
X4609Y21638D01*
Y21783D01*
X4724Y21871D01*
X4817Y21992D01*
X4875Y22132D01*
X4895Y22283D01*
X4875Y22435D01*
X4817Y22575D01*
X4724Y22696D01*
X4603Y22789D01*
X4462Y22847D01*
X4311Y22867D01*
D02*
G37*
G36*
X15186Y20895D02*
X14638D01*
X14645Y20827D01*
X14679Y20714D01*
X14735Y20610D01*
X14810Y20519D01*
X14901Y20444D01*
X15006Y20388D01*
X15119Y20354D01*
X15186Y20347D01*
Y20895D01*
D02*
G37*
G36*
X5837Y21186D02*
X5621D01*
Y20680D01*
X6029D01*
Y20994D01*
X6014Y21068D01*
X5973Y21130D01*
X5910Y21172D01*
X5837Y21186D01*
D02*
G37*
G36*
X15834Y20895D02*
X15286D01*
Y20347D01*
X15354Y20354D01*
X15467Y20388D01*
X15571Y20444D01*
X15663Y20519D01*
X15738Y20610D01*
X15793Y20714D01*
X15828Y20827D01*
X15834Y20895D01*
D02*
G37*
G36*
X13159Y22233D02*
X12606D01*
Y22033D01*
X12618Y21942D01*
X12653Y21857D01*
X12709Y21784D01*
X12782Y21728D01*
X12867Y21692D01*
X12959Y21680D01*
X13159D01*
Y22233D01*
D02*
G37*
G36*
X9399Y22886D02*
X9199D01*
X9107Y22874D01*
X9022Y22839D01*
X8949Y22783D01*
X8893Y22710D01*
X8858Y22625D01*
X8846Y22533D01*
Y22333D01*
X9399D01*
Y22886D01*
D02*
G37*
G36*
X5939D02*
X5739D01*
Y22333D01*
X6292D01*
Y22533D01*
X6280Y22625D01*
X6245Y22710D01*
X6189Y22783D01*
X6115Y22839D01*
X6030Y22874D01*
X5939Y22886D01*
D02*
G37*
G36*
X9699D02*
X9499D01*
Y22333D01*
X10052D01*
Y22533D01*
X10040Y22625D01*
X10005Y22710D01*
X9948Y22783D01*
X9875Y22839D01*
X9790Y22874D01*
X9699Y22886D01*
D02*
G37*
G36*
X13459D02*
X13259D01*
Y22333D01*
X13812D01*
Y22533D01*
X13800Y22625D01*
X13764Y22710D01*
X13708Y22783D01*
X13635Y22839D01*
X13550Y22874D01*
X13459Y22886D01*
D02*
G37*
G36*
X13159D02*
X12959D01*
X12867Y22874D01*
X12782Y22839D01*
X12709Y22783D01*
X12653Y22710D01*
X12618Y22625D01*
X12606Y22533D01*
Y22333D01*
X13159D01*
Y22886D01*
D02*
G37*
G36*
X5639D02*
X5439D01*
X5348Y22874D01*
X5262Y22839D01*
X5189Y22783D01*
X5133Y22710D01*
X5098Y22625D01*
X5086Y22533D01*
Y22333D01*
X5639D01*
Y22886D01*
D02*
G37*
G36*
X8071Y22867D02*
X7920Y22847D01*
X7779Y22789D01*
X7658Y22696D01*
X7565Y22575D01*
X7507Y22435D01*
X7487Y22283D01*
X7507Y22132D01*
X7565Y21992D01*
X7658Y21871D01*
X7779Y21778D01*
X7920Y21720D01*
X8071Y21700D01*
X8222Y21720D01*
X8363Y21778D01*
X8484Y21871D01*
X8576Y21992D01*
X8635Y22132D01*
X8655Y22283D01*
X8635Y22435D01*
X8576Y22575D01*
X8484Y22696D01*
X8363Y22789D01*
X8222Y22847D01*
X8071Y22867D01*
D02*
G37*
G36*
X13812Y22233D02*
X13259D01*
Y21680D01*
X13459D01*
X13550Y21692D01*
X13635Y21728D01*
X13708Y21784D01*
X13764Y21857D01*
X13800Y21942D01*
X13812Y22033D01*
Y22233D01*
D02*
G37*
G36*
X11831Y22867D02*
X11680Y22847D01*
X11539Y22789D01*
X11418Y22696D01*
X11325Y22575D01*
X11267Y22435D01*
X11247Y22283D01*
X11267Y22132D01*
X11325Y21992D01*
X11418Y21871D01*
X11539Y21778D01*
X11680Y21720D01*
X11831Y21700D01*
X11982Y21720D01*
X12123Y21778D01*
X12243Y21871D01*
X12336Y21992D01*
X12395Y22132D01*
X12414Y22283D01*
X12395Y22435D01*
X12336Y22575D01*
X12243Y22696D01*
X12123Y22789D01*
X11982Y22847D01*
X11831Y22867D01*
D02*
G37*
G36*
X16535Y24965D02*
X16325Y24948D01*
X16121Y24899D01*
X15926Y24818D01*
X15746Y24708D01*
X15586Y24571D01*
X15449Y24411D01*
X15339Y24232D01*
X15258Y24037D01*
X15209Y23832D01*
X15193Y23622D01*
X15209Y23412D01*
X15258Y23207D01*
X15339Y23012D01*
X15449Y22833D01*
X15586Y22673D01*
X15746Y22536D01*
X15926Y22426D01*
X16121Y22345D01*
X16325Y22296D01*
X16535Y22279D01*
X16745Y22296D01*
X16950Y22345D01*
X17145Y22426D01*
X17325Y22536D01*
X17485Y22673D01*
X17622Y22833D01*
X17732Y23012D01*
X17812Y23207D01*
X17862Y23412D01*
X17878Y23622D01*
X17862Y23832D01*
X17812Y24037D01*
X17732Y24232D01*
X17622Y24411D01*
X17485Y24571D01*
X17325Y24708D01*
X17145Y24818D01*
X16950Y24899D01*
X16745Y24948D01*
X16535Y24965D01*
D02*
G37*
G36*
X1575D02*
X1365Y24948D01*
X1160Y24899D01*
X965Y24818D01*
X786Y24708D01*
X625Y24571D01*
X489Y24411D01*
X378Y24232D01*
X298Y24037D01*
X249Y23832D01*
X232Y23622D01*
X249Y23412D01*
X298Y23207D01*
X378Y23012D01*
X489Y22833D01*
X625Y22673D01*
X786Y22536D01*
X965Y22426D01*
X1160Y22345D01*
X1365Y22296D01*
X1575Y22279D01*
X1785Y22296D01*
X1990Y22345D01*
X2184Y22426D01*
X2364Y22536D01*
X2524Y22673D01*
X2661Y22833D01*
X2771Y23012D01*
X2852Y23207D01*
X2901Y23412D01*
X2918Y23622D01*
X2901Y23832D01*
X2852Y24037D01*
X2771Y24232D01*
X2661Y24411D01*
X2524Y24571D01*
X2364Y24708D01*
X2184Y24818D01*
X1990Y24899D01*
X1785Y24948D01*
X1575Y24965D01*
D02*
G37*
G36*
X7648Y19808D02*
X7333D01*
Y19400D01*
X7840D01*
Y19616D01*
X7825Y19690D01*
X7784Y19752D01*
X7721Y19794D01*
X7648Y19808D01*
D02*
G37*
G36*
X14175Y14005D02*
X13908D01*
Y13739D01*
X14175D01*
Y14005D01*
D02*
G37*
G36*
X13808D02*
X13542D01*
Y13739D01*
X13808D01*
Y14005D01*
D02*
G37*
G36*
X15186Y14501D02*
X14986D01*
X14895Y14489D01*
X14810Y14453D01*
X14737Y14397D01*
X14681Y14324D01*
X14645Y14239D01*
X14633Y14148D01*
Y13948D01*
X15186D01*
Y14501D01*
D02*
G37*
G36*
X13808Y14372D02*
X13542D01*
Y14105D01*
X13808D01*
Y14372D01*
D02*
G37*
G36*
X15486Y14501D02*
X15286D01*
Y13948D01*
X15839D01*
Y14148D01*
X15827Y14239D01*
X15792Y14324D01*
X15736Y14397D01*
X15663Y14453D01*
X15578Y14489D01*
X15486Y14501D01*
D02*
G37*
G36*
X15839Y13848D02*
X15286D01*
Y13295D01*
X15486D01*
X15578Y13307D01*
X15663Y13342D01*
X15736Y13398D01*
X15792Y13471D01*
X15827Y13556D01*
X15839Y13648D01*
Y13848D01*
D02*
G37*
G36*
X13258Y12266D02*
X13081D01*
X13038Y12258D01*
X13003Y12234D01*
X12979Y12198D01*
X12970Y12156D01*
Y11821D01*
X12979Y11779D01*
X13003Y11743D01*
X13038Y11719D01*
X13049Y11717D01*
Y11321D01*
X12999Y11311D01*
X12977Y11343D01*
X12934Y11372D01*
X12884Y11382D01*
X12845D01*
Y11083D01*
Y10783D01*
X12884D01*
X12934Y10793D01*
X12977Y10822D01*
X13006Y10865D01*
X13016Y10915D01*
Y10943D01*
X13066Y10956D01*
X13084Y10929D01*
X13409Y10604D01*
X13448Y10578D01*
X13494Y10569D01*
X13494Y10569D01*
X14629D01*
X14633Y10538D01*
X14691Y10397D01*
X14784Y10276D01*
X14905Y10183D01*
X15046Y10125D01*
X15197Y10105D01*
X15348Y10125D01*
X15489Y10183D01*
X15610Y10276D01*
X15702Y10397D01*
X15761Y10538D01*
X15781Y10689D01*
X15761Y10840D01*
X15702Y10981D01*
X15610Y11102D01*
X15489Y11195D01*
X15348Y11253D01*
X15197Y11273D01*
X15046Y11253D01*
X14905Y11195D01*
X14784Y11102D01*
X14691Y10981D01*
X14633Y10840D01*
X14629Y10809D01*
X13544D01*
X13290Y11064D01*
Y11717D01*
X13300Y11719D01*
X13336Y11743D01*
X13360Y11779D01*
X13368Y11821D01*
Y12156D01*
X13360Y12198D01*
X13336Y12234D01*
X13300Y12258D01*
X13258Y12266D01*
D02*
G37*
G36*
X12745Y11382D02*
X12707D01*
X12656Y11372D01*
X12613Y11343D01*
X12585Y11301D01*
X12575Y11250D01*
Y11133D01*
X12745D01*
Y11382D01*
D02*
G37*
G36*
X15197Y12651D02*
X15046Y12631D01*
X14905Y12572D01*
X14784Y12480D01*
X14691Y12359D01*
X14633Y12218D01*
X14613Y12067D01*
X14633Y11916D01*
X14691Y11775D01*
X14784Y11654D01*
X14905Y11561D01*
X15046Y11503D01*
X15197Y11483D01*
X15348Y11503D01*
X15489Y11561D01*
X15610Y11654D01*
X15702Y11775D01*
X15761Y11916D01*
X15781Y12067D01*
X15761Y12218D01*
X15702Y12359D01*
X15610Y12480D01*
X15489Y12572D01*
X15348Y12631D01*
X15197Y12651D01*
D02*
G37*
G36*
X15186Y13848D02*
X14633D01*
Y13648D01*
X14645Y13556D01*
X14681Y13471D01*
X14737Y13398D01*
X14810Y13342D01*
X14895Y13307D01*
X14986Y13295D01*
X15186D01*
Y13848D01*
D02*
G37*
G36*
X12510Y12266D02*
X12333D01*
X12290Y12258D01*
X12255Y12234D01*
X12231Y12198D01*
X12222Y12156D01*
Y12109D01*
X12083D01*
X12037Y12099D01*
X12021Y12089D01*
X11999Y12074D01*
X11977Y12078D01*
X11949Y12090D01*
Y12185D01*
X11358D01*
Y11594D01*
X11949D01*
Y11738D01*
X11984Y11769D01*
X12031Y11778D01*
X12070Y11805D01*
X12133Y11868D01*
X12222D01*
Y11821D01*
X12231Y11779D01*
X12255Y11743D01*
X12290Y11719D01*
X12333Y11710D01*
X12510D01*
X12552Y11719D01*
X12588Y11743D01*
X12612Y11779D01*
X12620Y11821D01*
Y12156D01*
X12612Y12198D01*
X12588Y12234D01*
X12552Y12258D01*
X12510Y12266D01*
D02*
G37*
G36*
X14175Y14372D02*
X13908D01*
Y14105D01*
X14175D01*
Y14372D01*
D02*
G37*
G36*
X6225Y19281D02*
X5956D01*
Y18883D01*
X6068D01*
X6128Y18895D01*
X6179Y18929D01*
X6213Y18980D01*
X6225Y19040D01*
Y19281D01*
D02*
G37*
G36*
X5856D02*
X5586D01*
Y19040D01*
X5598Y18980D01*
X5632Y18929D01*
X5683Y18895D01*
X5743Y18883D01*
X5856D01*
Y19281D01*
D02*
G37*
G36*
Y19778D02*
X5743D01*
X5683Y19766D01*
X5632Y19732D01*
X5598Y19681D01*
X5586Y19621D01*
Y19381D01*
X5856D01*
Y19778D01*
D02*
G37*
G36*
X7233Y19808D02*
X6919D01*
X6846Y19794D01*
X6783Y19752D01*
X6742Y19690D01*
X6727Y19616D01*
Y19400D01*
X7233D01*
Y19808D01*
D02*
G37*
G36*
X6068Y19778D02*
X5956D01*
Y19381D01*
X6225D01*
Y19621D01*
X6213Y19681D01*
X6179Y19732D01*
X6128Y19766D01*
X6068Y19778D01*
D02*
G37*
G36*
X5162Y19757D02*
X4838D01*
X4786Y19746D01*
X4742Y19717D01*
X4712Y19673D01*
X4702Y19621D01*
Y19040D01*
X4702Y19040D01*
Y18951D01*
Y18866D01*
X3818Y17982D01*
X3785Y17933D01*
X3774Y17875D01*
Y10786D01*
X3785Y10729D01*
X3818Y10680D01*
X4199Y10298D01*
X4179Y10248D01*
X4154D01*
X4154Y10248D01*
X4108Y10239D01*
X4069Y10213D01*
X3709Y9853D01*
X3683Y9814D01*
X3674Y9768D01*
X3674Y9768D01*
Y1076D01*
X3674Y1076D01*
X3683Y1030D01*
X3709Y991D01*
X3709Y991D01*
X4129Y571D01*
X4168Y545D01*
X4214Y536D01*
X4214Y536D01*
X6412D01*
X6412Y536D01*
X6458Y545D01*
X6497Y571D01*
X6497Y571D01*
X7047Y1121D01*
X7115Y1092D01*
X7213Y1079D01*
X7310Y1092D01*
X7401Y1130D01*
X7479Y1190D01*
X7539Y1268D01*
X7577Y1359D01*
X7590Y1457D01*
X7577Y1554D01*
X7539Y1645D01*
X7479Y1723D01*
X7401Y1783D01*
X7310Y1821D01*
X7213Y1834D01*
X7115Y1821D01*
X7024Y1783D01*
X6946Y1723D01*
X6886Y1645D01*
X6848Y1554D01*
X6835Y1457D01*
X6848Y1359D01*
X6876Y1291D01*
X6362Y777D01*
X4264D01*
X3935Y1106D01*
X3938Y1133D01*
X3992Y1155D01*
X4024Y1130D01*
X4115Y1092D01*
X4213Y1079D01*
X4310Y1092D01*
X4401Y1130D01*
X4479Y1190D01*
X4539Y1268D01*
X4577Y1359D01*
X4590Y1457D01*
X4577Y1554D01*
X4539Y1645D01*
X4479Y1723D01*
X4401Y1783D01*
X4333Y1812D01*
Y7509D01*
X4993Y8169D01*
X5354D01*
Y2195D01*
X5354Y2195D01*
X5363Y2149D01*
X5389Y2110D01*
X5876Y1623D01*
X5848Y1554D01*
X5835Y1457D01*
X5848Y1359D01*
X5886Y1268D01*
X5946Y1190D01*
X6024Y1130D01*
X6115Y1092D01*
X6213Y1079D01*
X6310Y1092D01*
X6401Y1130D01*
X6479Y1190D01*
X6539Y1268D01*
X6577Y1359D01*
X6590Y1457D01*
X6577Y1554D01*
X6539Y1645D01*
X6479Y1723D01*
X6401Y1783D01*
X6310Y1821D01*
X6213Y1834D01*
X6115Y1821D01*
X6047Y1793D01*
X5595Y2245D01*
Y8169D01*
X6122D01*
Y8590D01*
X7014Y9482D01*
X7018Y9480D01*
X7036Y9418D01*
X7025Y9360D01*
X7036Y9303D01*
X7069Y9254D01*
X7118Y9221D01*
X7175Y9210D01*
X7399D01*
Y8760D01*
X7224D01*
Y8169D01*
X7815D01*
Y8760D01*
X7640D01*
Y9210D01*
X7864D01*
X7922Y9221D01*
X7971Y9254D01*
X8003Y9303D01*
X8015Y9360D01*
X8003Y9418D01*
X7985Y9446D01*
X8010Y9496D01*
X8545D01*
X9534Y8506D01*
Y4710D01*
X9534Y4710D01*
X9543Y4664D01*
X9569Y4625D01*
X9889Y4305D01*
X9889Y4305D01*
X9913Y4289D01*
X9928Y4279D01*
X9974Y4269D01*
X14615D01*
Y4140D01*
X14627Y4054D01*
X14660Y3974D01*
X14712Y3905D01*
X14781Y3853D01*
X14861Y3819D01*
X14947Y3808D01*
X15447D01*
X15533Y3819D01*
X15613Y3853D01*
X15681Y3905D01*
X15734Y3974D01*
X15767Y4054D01*
X15778Y4140D01*
Y4640D01*
X15767Y4726D01*
X15734Y4806D01*
X15681Y4874D01*
X15613Y4927D01*
X15533Y4960D01*
X15447Y4971D01*
X14947D01*
X14861Y4960D01*
X14781Y4927D01*
X14712Y4874D01*
X14660Y4806D01*
X14627Y4726D01*
X14615Y4640D01*
Y4510D01*
X10024D01*
X9775Y4760D01*
Y8556D01*
X9766Y8602D01*
X9755Y8618D01*
X9740Y8641D01*
X9740Y8641D01*
X8680Y9701D01*
X8641Y9727D01*
X8594Y9737D01*
X8594Y9737D01*
X8010D01*
X7985Y9787D01*
X8003Y9814D01*
X8015Y9872D01*
X8003Y9930D01*
X7971Y9979D01*
Y10022D01*
X8003Y10070D01*
X8015Y10128D01*
X8003Y10186D01*
X7971Y10234D01*
Y10277D01*
X8003Y10326D01*
X8015Y10384D01*
X8003Y10441D01*
X7985Y10469D01*
X8010Y10519D01*
X8044D01*
X8044Y10519D01*
X8091Y10529D01*
X8130Y10555D01*
X8219Y10644D01*
X8806D01*
X10014Y9436D01*
Y8183D01*
X10014Y8183D01*
X10023Y8137D01*
X10049Y8098D01*
X10532Y7615D01*
Y7195D01*
X11122D01*
Y7370D01*
X11197D01*
X11199Y7369D01*
X11245Y7360D01*
X11358D01*
Y7185D01*
X11949D01*
Y7776D01*
X11358D01*
Y7601D01*
X11282D01*
X11281Y7602D01*
X11234Y7611D01*
X11234Y7611D01*
X11122D01*
Y7786D01*
X10702D01*
X10255Y8233D01*
Y9486D01*
X10255Y9486D01*
X10246Y9532D01*
X10220Y9571D01*
X10220Y9571D01*
X9035Y10756D01*
X9054Y10802D01*
X9146D01*
X10492Y9456D01*
Y9035D01*
X11083D01*
Y9210D01*
X11214D01*
X11214Y9210D01*
X11358D01*
Y9035D01*
X11949D01*
Y9626D01*
X11358D01*
Y9451D01*
X11215D01*
X11214Y9451D01*
X11214Y9451D01*
X11083D01*
Y9626D01*
X10662D01*
X9281Y11008D01*
X9276Y11011D01*
X9291Y11061D01*
X10492D01*
Y10886D01*
X11083D01*
Y11061D01*
X11214D01*
X11214Y11061D01*
X11358D01*
Y10886D01*
X11949D01*
Y11476D01*
X11358D01*
Y11302D01*
X11215D01*
X11214Y11302D01*
X11214Y11302D01*
X11083D01*
Y11476D01*
X10492D01*
Y11302D01*
X9164D01*
X9164Y11302D01*
X9118Y11292D01*
X9087Y11272D01*
X8010D01*
X7985Y11322D01*
X8003Y11350D01*
X8015Y11407D01*
X8003Y11465D01*
X7979Y11502D01*
X7974Y11535D01*
X7979Y11569D01*
X8003Y11606D01*
X8015Y11663D01*
X8003Y11721D01*
X7971Y11770D01*
X7922Y11802D01*
X7864Y11814D01*
X7175D01*
X7118Y11802D01*
X7069Y11770D01*
X7036Y11721D01*
X7025Y11663D01*
X7036Y11606D01*
X7061Y11569D01*
X7066Y11535D01*
X7061Y11502D01*
X7036Y11465D01*
X7025Y11407D01*
X7036Y11350D01*
X7069Y11301D01*
Y11258D01*
X7036Y11209D01*
X7025Y11152D01*
X7036Y11094D01*
X7069Y11045D01*
Y11002D01*
X7036Y10953D01*
X7025Y10896D01*
X7036Y10838D01*
X7069Y10789D01*
Y10746D01*
X7036Y10697D01*
X7025Y10640D01*
X7036Y10582D01*
X7055Y10554D01*
X7029Y10504D01*
X6958D01*
X6928Y10550D01*
X6856Y10598D01*
X6772Y10614D01*
X6687Y10598D01*
X6616Y10550D01*
X6568Y10478D01*
X6551Y10394D01*
X6568Y10309D01*
X6616Y10238D01*
X6687Y10190D01*
X6772Y10173D01*
X6856Y10190D01*
X6928Y10238D01*
X6945Y10263D01*
X6995D01*
X7010Y10213D01*
X7009Y10213D01*
X7009Y10213D01*
X6899Y10103D01*
X6873Y10064D01*
X6864Y10018D01*
X6864Y10018D01*
Y9672D01*
X5952Y8760D01*
X5595D01*
Y8936D01*
X6010Y9351D01*
X6036Y9390D01*
X6045Y9436D01*
Y9666D01*
X6045Y9666D01*
X6036Y9712D01*
X6010Y9751D01*
X5804Y9957D01*
X5765Y9983D01*
X5725Y9991D01*
X5712Y10011D01*
X5701Y10042D01*
X5720Y10070D01*
X5731Y10128D01*
X5720Y10186D01*
X5701Y10213D01*
X5727Y10263D01*
X5811D01*
X5828Y10238D01*
X5900Y10190D01*
X5984Y10173D01*
X6069Y10190D01*
X6140Y10238D01*
X6188Y10309D01*
X6205Y10394D01*
X6188Y10478D01*
X6140Y10550D01*
X6069Y10598D01*
X5984Y10614D01*
X5900Y10598D01*
X5828Y10550D01*
X5800Y10507D01*
X5751Y10508D01*
X5727Y10554D01*
X5740Y10574D01*
X5743Y10590D01*
X4729D01*
X4731Y10584D01*
X4703Y10534D01*
X4389D01*
X4075Y10848D01*
Y17813D01*
X4757Y18495D01*
X4789Y18493D01*
X5284Y17998D01*
X5284Y17998D01*
X5346Y17951D01*
X5417Y17921D01*
X5494Y17911D01*
X5494Y17911D01*
X6755D01*
X6762Y17878D01*
X6799Y17822D01*
X6854Y17785D01*
X6919Y17772D01*
X7648D01*
X7713Y17785D01*
X7768Y17822D01*
X7805Y17878D01*
X7818Y17943D01*
Y18088D01*
X8208D01*
X11388Y14908D01*
Y14685D01*
X11698D01*
X11717Y14639D01*
X11245Y14167D01*
X6294D01*
X6294Y14167D01*
X6248Y14157D01*
X6209Y14131D01*
X6209Y14131D01*
X4619Y12541D01*
X4593Y12502D01*
X4584Y12456D01*
X4584Y12456D01*
Y10896D01*
X4593Y10850D01*
X4619Y10811D01*
X4658Y10784D01*
X4704Y10775D01*
X4719D01*
X4746Y10725D01*
X4733Y10706D01*
X4729Y10690D01*
X5743D01*
X5740Y10706D01*
X5702Y10762D01*
X5707Y10819D01*
X5720Y10838D01*
X5731Y10896D01*
X5720Y10953D01*
X5687Y11002D01*
Y11045D01*
X5720Y11094D01*
X5731Y11152D01*
X5720Y11209D01*
X5687Y11258D01*
Y11301D01*
X5720Y11350D01*
X5731Y11407D01*
X5720Y11465D01*
X5701Y11493D01*
X5727Y11543D01*
X6202D01*
X6202Y11543D01*
X6248Y11552D01*
X6287Y11578D01*
X7784Y13076D01*
X10753D01*
X10753Y13076D01*
X10799Y13085D01*
X10838Y13111D01*
X12114Y14387D01*
X12254D01*
Y14311D01*
X12707D01*
X12707Y14311D01*
Y14311D01*
X12747Y14288D01*
X12854Y14180D01*
Y13760D01*
X13445D01*
Y14350D01*
X13270D01*
Y14716D01*
X13270Y14716D01*
X13270Y14716D01*
Y15098D01*
X13445D01*
Y15689D01*
X12854D01*
Y15098D01*
X13029D01*
Y14716D01*
X13029Y14716D01*
X13029Y14716D01*
Y14417D01*
X12979Y14396D01*
X12782Y14593D01*
X12743Y14619D01*
X12707Y14626D01*
Y14705D01*
X12254D01*
Y14628D01*
X12064D01*
X12054Y14626D01*
X12048Y14627D01*
X12005Y14666D01*
Y17735D01*
X12028Y17776D01*
X12618D01*
Y18366D01*
X12028D01*
Y18186D01*
X12008Y18182D01*
X11969Y18156D01*
X11969Y18156D01*
X11799Y17986D01*
X11773Y17947D01*
X11764Y17901D01*
X11764Y17901D01*
Y15079D01*
X11558D01*
X8343Y18294D01*
X8304Y18320D01*
X8258Y18329D01*
X8258Y18329D01*
X7818D01*
Y18474D01*
X7805Y18540D01*
X7805Y18540D01*
X7783Y18580D01*
Y18580D01*
X7783Y18580D01*
X7783Y18580D01*
Y18949D01*
X7784Y18949D01*
X7825Y19011D01*
X7840Y19085D01*
Y19300D01*
X6727D01*
Y19085D01*
X6742Y19011D01*
X6783Y18949D01*
X6783Y18949D01*
Y18625D01*
X6783Y18591D01*
X6766Y18546D01*
X6766Y18546D01*
X6760Y18538D01*
X6733Y18506D01*
X5618D01*
X5298Y18827D01*
Y18951D01*
Y19040D01*
X5298Y19040D01*
Y19621D01*
X5288Y19673D01*
X5258Y19717D01*
X5214Y19746D01*
X5162Y19757D01*
D02*
G37*
G36*
X15236Y15859D02*
X15085Y15839D01*
X14944Y15781D01*
X14823Y15688D01*
X14731Y15567D01*
X14678Y15441D01*
X14638Y15427D01*
X14622Y15427D01*
X14570Y15479D01*
X14531Y15505D01*
X14484Y15514D01*
X14484Y15514D01*
X14154D01*
Y15689D01*
X13563D01*
Y15098D01*
X14154D01*
Y15273D01*
X14435D01*
X14517Y15190D01*
X14557Y15164D01*
X14603Y15155D01*
X14603Y15155D01*
X14668D01*
X14672Y15124D01*
X14731Y14984D01*
X14823Y14863D01*
X14944Y14770D01*
X15085Y14712D01*
X15236Y14692D01*
X15387Y14712D01*
X15528Y14770D01*
X15649Y14863D01*
X15742Y14984D01*
X15800Y15124D01*
X15820Y15276D01*
X15800Y15427D01*
X15742Y15567D01*
X15649Y15688D01*
X15528Y15781D01*
X15387Y15839D01*
X15236Y15859D01*
D02*
G37*
G36*
X12707Y15453D02*
X12254D01*
Y15059D01*
X12707D01*
Y15453D01*
D02*
G37*
G36*
X5603Y17159D02*
X4397D01*
X4333Y17146D01*
X4278Y17110D01*
X4242Y17055D01*
X4229Y16991D01*
Y16474D01*
X4242Y16410D01*
X4278Y16355D01*
X4333Y16319D01*
X4397Y16306D01*
X5603D01*
X5667Y16319D01*
X5722Y16355D01*
X5758Y16410D01*
X5771Y16474D01*
Y16991D01*
X5758Y17055D01*
X5722Y17110D01*
X5667Y17146D01*
X5603Y17159D01*
D02*
G37*
G36*
X15486Y18771D02*
X14986D01*
X14900Y18759D01*
X14820Y18726D01*
X14752Y18673D01*
X14699Y18605D01*
X14666Y18525D01*
X14655Y18439D01*
Y18309D01*
X14193D01*
X14193Y18309D01*
X14146Y18300D01*
X14107Y18274D01*
X14107Y18274D01*
X14025Y18191D01*
X13327D01*
Y18366D01*
X12736D01*
Y17776D01*
X13327D01*
Y17950D01*
X14074D01*
X14074Y17950D01*
X14121Y17960D01*
X14160Y17986D01*
X14242Y18069D01*
X14655D01*
Y17939D01*
X14666Y17853D01*
X14699Y17773D01*
X14752Y17704D01*
X14820Y17652D01*
X14900Y17619D01*
X14986Y17607D01*
X15486D01*
X15572Y17619D01*
X15652Y17652D01*
X15721Y17704D01*
X15773Y17773D01*
X15806Y17853D01*
X15818Y17939D01*
Y18439D01*
X15806Y18525D01*
X15773Y18605D01*
X15721Y18673D01*
X15652Y18726D01*
X15572Y18759D01*
X15486Y18771D01*
D02*
G37*
G36*
X15236Y20151D02*
X15085Y20131D01*
X14944Y20072D01*
X14823Y19980D01*
X14731Y19859D01*
X14672Y19718D01*
X14652Y19567D01*
X14672Y19416D01*
X14731Y19275D01*
X14823Y19154D01*
X14944Y19061D01*
X15085Y19003D01*
X15236Y18983D01*
X15387Y19003D01*
X15528Y19061D01*
X15649Y19154D01*
X15737Y19269D01*
X15822D01*
X16001Y19089D01*
Y17210D01*
X15775Y16984D01*
X15709Y16988D01*
X15649Y17066D01*
X15528Y17159D01*
X15387Y17217D01*
X15236Y17237D01*
X15085Y17217D01*
X14944Y17159D01*
X14823Y17066D01*
X14731Y16945D01*
X14672Y16805D01*
X14652Y16654D01*
X14672Y16502D01*
X14731Y16362D01*
X14823Y16241D01*
X14944Y16148D01*
X15085Y16090D01*
X15236Y16070D01*
X15387Y16090D01*
X15528Y16148D01*
X15649Y16241D01*
X15737Y16356D01*
X15866D01*
X15943Y16366D01*
X15994Y16387D01*
X16015Y16396D01*
X16077Y16443D01*
X16510Y16876D01*
X16510Y16876D01*
X16557Y16938D01*
X16587Y17010D01*
X16597Y17087D01*
X16597Y17087D01*
Y19213D01*
X16597Y19213D01*
X16587Y19290D01*
X16557Y19362D01*
X16510Y19423D01*
X16155Y19778D01*
X16094Y19825D01*
X16022Y19855D01*
X15945Y19865D01*
X15737D01*
X15649Y19980D01*
X15528Y20072D01*
X15387Y20131D01*
X15236Y20151D01*
D02*
G37*
%LPD*%
D10*
X11654Y9331D02*
D03*
Y10039D02*
D03*
X10787Y9331D02*
D03*
Y8622D02*
D03*
X11654Y11181D02*
D03*
Y11890D02*
D03*
X10787Y11181D02*
D03*
Y10472D02*
D03*
X11654Y7480D02*
D03*
Y8189D02*
D03*
X10827Y7490D02*
D03*
Y6782D02*
D03*
D11*
X12795Y11083D02*
D03*
X12421Y11988D02*
D03*
X13169D02*
D03*
X12795Y9252D02*
D03*
X12421Y10157D02*
D03*
X13169D02*
D03*
X12795Y7382D02*
D03*
X12421Y8287D02*
D03*
X13169D02*
D03*
D12*
X13858Y15394D02*
D03*
X13150D02*
D03*
X13150Y14055D02*
D03*
X13858D02*
D03*
X13032Y18071D02*
D03*
X12323D02*
D03*
X5118Y8465D02*
D03*
X5827D02*
D03*
X6811Y8465D02*
D03*
X7520D02*
D03*
D13*
X11614Y14882D02*
D03*
X12480Y15256D02*
D03*
Y14508D02*
D03*
D14*
X5236Y11663D02*
D03*
Y11407D02*
D03*
Y11152D02*
D03*
Y10896D02*
D03*
Y10640D02*
D03*
Y10384D02*
D03*
Y10128D02*
D03*
Y9872D02*
D03*
Y9616D02*
D03*
Y9360D02*
D03*
X7520Y11663D02*
D03*
Y11407D02*
D03*
Y11152D02*
D03*
Y10896D02*
D03*
Y10640D02*
D03*
Y10384D02*
D03*
Y10128D02*
D03*
Y9872D02*
D03*
Y9616D02*
D03*
Y9360D02*
D03*
D15*
X4429Y20630D02*
D03*
X5571D02*
D03*
D16*
X7283Y18209D02*
D03*
Y19350D02*
D03*
D17*
X5000Y16732D02*
D03*
D18*
X4094Y19331D02*
D03*
X5000D02*
D03*
D19*
X5906D02*
D03*
D20*
X7520Y8465D02*
Y9360D01*
X7520Y10896D02*
X7888D01*
X6772Y10394D02*
X6781Y10384D01*
X7520D01*
Y10640D02*
X8044D01*
X8170Y10765D01*
X5974Y10384D02*
X5984Y10394D01*
X5236Y10384D02*
X5974D01*
X4154Y10128D02*
X5236D01*
X3794Y9768D02*
X4154Y10128D01*
X7888Y10896D02*
Y10922D01*
X12480Y14508D02*
X12697D01*
X13150Y14055D01*
X8170Y10765D02*
X8856D01*
X10134Y9486D01*
Y8183D02*
Y9486D01*
Y8183D02*
X10827Y7490D01*
X13524Y7933D02*
X15197D01*
X13169Y8287D02*
X13524Y7933D01*
X4444Y9616D02*
X5236D01*
Y11663D02*
X6202D01*
X7734Y13196D01*
X10753D01*
X12064Y14508D01*
X12480D01*
X12054Y18071D02*
X12323D01*
X11884Y17901D02*
X12054Y18071D01*
X11884Y14636D02*
Y17901D01*
X11294Y14046D02*
X11884Y14636D01*
X6294Y14046D02*
X11294D01*
X4704Y12456D02*
X6294Y14046D01*
X4704Y10896D02*
Y12456D01*
Y10896D02*
X5236D01*
X11584Y14882D02*
X11614D01*
X8258Y18209D02*
X11584Y14882D01*
X7283Y18209D02*
X8258D01*
X6412Y656D02*
X7213Y1457D01*
X4214Y656D02*
X6412D01*
X3794Y1076D02*
X4214Y656D01*
X3794Y1076D02*
Y9768D01*
X4213Y1457D02*
Y7559D01*
X5118Y8465D01*
X4554Y9360D02*
X5236D01*
X4380Y9186D02*
X4554Y9360D01*
X4380Y8748D02*
Y9186D01*
X5474Y2195D02*
X6213Y1457D01*
X5474Y2195D02*
Y8986D01*
X5924Y9436D01*
Y9666D01*
X5719Y9872D02*
X5924Y9666D01*
X5236Y9872D02*
X5719D01*
X9164Y11181D02*
X10787D01*
X9134Y11152D02*
X9164Y11181D01*
X7520Y11152D02*
X9134D01*
X7888Y10922D02*
X9196D01*
X10787Y9331D01*
X9974Y4390D02*
X15197D01*
X9654Y4710D02*
X9974Y4390D01*
X9654Y4710D02*
Y8556D01*
X8594Y9616D02*
X9654Y8556D01*
X7520Y9616D02*
X8594D01*
X7094Y10128D02*
X7520D01*
X6984Y10018D02*
X7094Y10128D01*
X6984Y9622D02*
Y10018D01*
X5827Y8465D02*
X6984Y9622D01*
X13494Y10689D02*
X15197D01*
X13169Y11014D02*
X13494Y10689D01*
X13169Y11014D02*
Y11988D01*
X13494Y9311D02*
X15197D01*
X13169Y9636D02*
X13494Y9311D01*
X13169Y9636D02*
Y10157D01*
X11214Y11181D02*
X11654D01*
X11214Y11181D02*
X11214Y11181D01*
X10787Y11181D02*
X11214D01*
X11214Y9331D02*
X11654D01*
X11214Y9331D02*
X11214Y9331D01*
X10787Y9331D02*
X11214D01*
X12083Y8287D02*
X12421D01*
X11984Y8189D02*
X12083Y8287D01*
X11654Y8189D02*
X11984D01*
X12093Y10157D02*
X12421D01*
X11974Y10039D02*
X12093Y10157D01*
X11654Y10039D02*
X11974D01*
X12083Y11988D02*
X12421D01*
X11984Y11890D02*
X12083Y11988D01*
X11654Y11890D02*
X11984D01*
X13150Y14716D02*
Y15394D01*
X13150Y14716D02*
X13150Y14716D01*
X13150Y14055D02*
Y14716D01*
X11245Y7480D02*
X11654D01*
X11234Y7490D02*
X11245Y7480D01*
X10827Y7490D02*
X11234D01*
X14193Y18189D02*
X15236D01*
X14074Y18071D02*
X14193Y18189D01*
X13032Y18071D02*
X14074D01*
X14603Y15276D02*
X15236D01*
X14484Y15394D02*
X14603Y15276D01*
X13858Y15394D02*
X14484D01*
D21*
X15236Y19567D02*
X15945D01*
X16299Y19213D01*
Y17087D02*
Y19213D01*
X15866Y16654D02*
X16299Y17087D01*
X15236Y16654D02*
X15866D01*
X5000Y18703D02*
Y18951D01*
Y19331D01*
X5494Y18209D02*
X7283D01*
X5000Y18703D02*
X5494Y18209D01*
X4311Y21514D02*
Y22283D01*
Y21514D02*
X4429Y21396D01*
Y20630D02*
Y21396D01*
Y20141D02*
Y20630D01*
X4094Y19806D02*
X4429Y20141D01*
X4094Y19331D02*
Y19806D01*
D22*
X4327Y10384D02*
X5236D01*
X3924Y17875D02*
X5000Y18951D01*
X3924Y10786D02*
Y17875D01*
Y10786D02*
X4327Y10384D01*
D23*
X4311Y22283D02*
D03*
X8071D02*
D03*
X11831D02*
D03*
X15197Y12067D02*
D03*
Y10689D02*
D03*
Y9311D02*
D03*
X15236Y19567D02*
D03*
Y20945D02*
D03*
Y15276D02*
D03*
Y16654D02*
D03*
X15197Y5768D02*
D03*
D24*
X5689Y22283D02*
D03*
X9449D02*
D03*
X13209D02*
D03*
D25*
X1575Y1575D02*
D03*
Y23622D02*
D03*
X16535Y1575D02*
D03*
Y23622D02*
D03*
D26*
X1850Y10748D02*
D03*
D27*
Y9748D02*
D03*
Y8748D02*
D03*
D28*
X9213Y1457D02*
D03*
D29*
X8213D02*
D03*
X7213D02*
D03*
X6213D02*
D03*
X5213D02*
D03*
X4213D02*
D03*
D30*
X15197Y7933D02*
D03*
X15236Y18189D02*
D03*
Y13898D02*
D03*
X15197Y4390D02*
D03*
D31*
X6772Y10394D02*
D03*
X5984D02*
D03*
X4444Y9616D02*
D03*
X4380Y8748D02*
D03*
M02*
