%FSLAX24Y24*%
%MOIN*%
G70*
G01*
G75*
G04 Layer_Color=32896*
%ADD10R,0.0433X0.0433*%
G04:AMPARAMS|DCode=11|XSize=23.6mil|YSize=39.4mil|CornerRadius=3mil|HoleSize=0mil|Usage=FLASHONLY|Rotation=180.000|XOffset=0mil|YOffset=0mil|HoleType=Round|Shape=RoundedRectangle|*
%AMROUNDEDRECTD11*
21,1,0.0236,0.0335,0,0,180.0*
21,1,0.0177,0.0394,0,0,180.0*
1,1,0.0059,-0.0089,0.0167*
1,1,0.0059,0.0089,0.0167*
1,1,0.0059,0.0089,-0.0167*
1,1,0.0059,-0.0089,-0.0167*
%
%ADD11ROUNDEDRECTD11*%
%ADD12R,0.0433X0.0433*%
%ADD13R,0.0295X0.0236*%
%ADD14O,0.0827X0.0138*%
G04:AMPARAMS|DCode=15|XSize=90.6mil|YSize=70.9mil|CornerRadius=8.9mil|HoleSize=0mil|Usage=FLASHONLY|Rotation=90.000|XOffset=0mil|YOffset=0mil|HoleType=Round|Shape=RoundedRectangle|*
%AMROUNDEDRECTD15*
21,1,0.0906,0.0532,0,0,90.0*
21,1,0.0728,0.0709,0,0,90.0*
1,1,0.0177,0.0266,0.0364*
1,1,0.0177,0.0266,-0.0364*
1,1,0.0177,-0.0266,-0.0364*
1,1,0.0177,-0.0266,0.0364*
%
%ADD15ROUNDEDRECTD15*%
G04:AMPARAMS|DCode=16|XSize=90.6mil|YSize=70.9mil|CornerRadius=8.9mil|HoleSize=0mil|Usage=FLASHONLY|Rotation=180.000|XOffset=0mil|YOffset=0mil|HoleType=Round|Shape=RoundedRectangle|*
%AMROUNDEDRECTD16*
21,1,0.0906,0.0532,0,0,180.0*
21,1,0.0728,0.0709,0,0,180.0*
1,1,0.0177,-0.0364,0.0266*
1,1,0.0177,0.0364,0.0266*
1,1,0.0177,0.0364,-0.0266*
1,1,0.0177,-0.0364,-0.0266*
%
%ADD16ROUNDEDRECTD16*%
G04:AMPARAMS|DCode=17|XSize=137.8mil|YSize=68.9mil|CornerRadius=8.6mil|HoleSize=0mil|Usage=FLASHONLY|Rotation=180.000|XOffset=0mil|YOffset=0mil|HoleType=Round|Shape=RoundedRectangle|*
%AMROUNDEDRECTD17*
21,1,0.1378,0.0517,0,0,180.0*
21,1,0.1206,0.0689,0,0,180.0*
1,1,0.0172,-0.0603,0.0258*
1,1,0.0172,0.0603,0.0258*
1,1,0.0172,0.0603,-0.0258*
1,1,0.0172,-0.0603,-0.0258*
%
%ADD17ROUNDEDRECTD17*%
G04:AMPARAMS|DCode=18|XSize=43.3mil|YSize=68.9mil|CornerRadius=5.4mil|HoleSize=0mil|Usage=FLASHONLY|Rotation=180.000|XOffset=0mil|YOffset=0mil|HoleType=Round|Shape=RoundedRectangle|*
%AMROUNDEDRECTD18*
21,1,0.0433,0.0581,0,0,180.0*
21,1,0.0325,0.0689,0,0,180.0*
1,1,0.0108,-0.0162,0.0290*
1,1,0.0108,0.0162,0.0290*
1,1,0.0108,0.0162,-0.0290*
1,1,0.0108,-0.0162,-0.0290*
%
%ADD18ROUNDEDRECTD18*%
G04:AMPARAMS|DCode=19|XSize=43.3mil|YSize=68.9mil|CornerRadius=5.4mil|HoleSize=0mil|Usage=FLASHONLY|Rotation=180.000|XOffset=0mil|YOffset=0mil|HoleType=Round|Shape=RoundedRectangle|*
%AMROUNDEDRECTD19*
21,1,0.0433,0.0581,0,0,180.0*
21,1,0.0325,0.0689,0,0,180.0*
1,1,0.0108,-0.0162,0.0290*
1,1,0.0108,0.0162,0.0290*
1,1,0.0108,0.0162,-0.0290*
1,1,0.0108,-0.0162,-0.0290*
%
%ADD19ROUNDEDRECTD19*%
%ADD20C,0.0079*%
%ADD21C,0.0433*%
%ADD22C,0.0138*%
%ADD23C,0.1000*%
G04:AMPARAMS|DCode=24|XSize=100mil|YSize=100mil|CornerRadius=25mil|HoleSize=0mil|Usage=FLASHONLY|Rotation=90.000|XOffset=0mil|YOffset=0mil|HoleType=Round|Shape=RoundedRectangle|*
%AMROUNDEDRECTD24*
21,1,0.1000,0.0500,0,0,90.0*
21,1,0.0500,0.1000,0,0,90.0*
1,1,0.0500,0.0250,0.0250*
1,1,0.0500,0.0250,-0.0250*
1,1,0.0500,-0.0250,-0.0250*
1,1,0.0500,-0.0250,0.0250*
%
%ADD24ROUNDEDRECTD24*%
%ADD25C,0.2520*%
%ADD26R,0.0787X0.0591*%
%ADD27O,0.0787X0.0591*%
%ADD28R,0.0591X0.0591*%
%ADD29C,0.0591*%
G04:AMPARAMS|DCode=30|XSize=100mil|YSize=100mil|CornerRadius=25mil|HoleSize=0mil|Usage=FLASHONLY|Rotation=0.000|XOffset=0mil|YOffset=0mil|HoleType=Round|Shape=RoundedRectangle|*
%AMROUNDEDRECTD30*
21,1,0.1000,0.0500,0,0,0.0*
21,1,0.0500,0.1000,0,0,0.0*
1,1,0.0500,0.0250,-0.0250*
1,1,0.0500,-0.0250,-0.0250*
1,1,0.0500,-0.0250,0.0250*
1,1,0.0500,0.0250,0.0250*
%
%ADD30ROUNDEDRECTD30*%
%ADD31C,0.0276*%
%ADD32R,0.0571X0.0453*%
%ADD33R,0.0610X0.0532*%
%ADD34C,0.0098*%
%ADD35C,0.0236*%
%ADD36C,0.0050*%
%ADD37C,0.0059*%
%ADD38C,0.0100*%
%ADD39C,0.0197*%
%ADD40R,0.0513X0.0513*%
G04:AMPARAMS|DCode=41|XSize=31.6mil|YSize=47.4mil|CornerRadius=7mil|HoleSize=0mil|Usage=FLASHONLY|Rotation=180.000|XOffset=0mil|YOffset=0mil|HoleType=Round|Shape=RoundedRectangle|*
%AMROUNDEDRECTD41*
21,1,0.0316,0.0335,0,0,180.0*
21,1,0.0177,0.0474,0,0,180.0*
1,1,0.0139,-0.0089,0.0167*
1,1,0.0139,0.0089,0.0167*
1,1,0.0139,0.0089,-0.0167*
1,1,0.0139,-0.0089,-0.0167*
%
%ADD41ROUNDEDRECTD41*%
%ADD42R,0.0513X0.0513*%
%ADD43R,0.0375X0.0316*%
%ADD44O,0.0907X0.0218*%
G04:AMPARAMS|DCode=45|XSize=98.6mil|YSize=78.9mil|CornerRadius=12.9mil|HoleSize=0mil|Usage=FLASHONLY|Rotation=90.000|XOffset=0mil|YOffset=0mil|HoleType=Round|Shape=RoundedRectangle|*
%AMROUNDEDRECTD45*
21,1,0.0986,0.0532,0,0,90.0*
21,1,0.0728,0.0789,0,0,90.0*
1,1,0.0257,0.0266,0.0364*
1,1,0.0257,0.0266,-0.0364*
1,1,0.0257,-0.0266,-0.0364*
1,1,0.0257,-0.0266,0.0364*
%
%ADD45ROUNDEDRECTD45*%
G04:AMPARAMS|DCode=46|XSize=98.6mil|YSize=78.9mil|CornerRadius=12.9mil|HoleSize=0mil|Usage=FLASHONLY|Rotation=180.000|XOffset=0mil|YOffset=0mil|HoleType=Round|Shape=RoundedRectangle|*
%AMROUNDEDRECTD46*
21,1,0.0986,0.0532,0,0,180.0*
21,1,0.0728,0.0789,0,0,180.0*
1,1,0.0257,-0.0364,0.0266*
1,1,0.0257,0.0364,0.0266*
1,1,0.0257,0.0364,-0.0266*
1,1,0.0257,-0.0364,-0.0266*
%
%ADD46ROUNDEDRECTD46*%
G04:AMPARAMS|DCode=47|XSize=145.8mil|YSize=76.9mil|CornerRadius=12.6mil|HoleSize=0mil|Usage=FLASHONLY|Rotation=180.000|XOffset=0mil|YOffset=0mil|HoleType=Round|Shape=RoundedRectangle|*
%AMROUNDEDRECTD47*
21,1,0.1458,0.0517,0,0,180.0*
21,1,0.1206,0.0769,0,0,180.0*
1,1,0.0252,-0.0603,0.0258*
1,1,0.0252,0.0603,0.0258*
1,1,0.0252,0.0603,-0.0258*
1,1,0.0252,-0.0603,-0.0258*
%
%ADD47ROUNDEDRECTD47*%
G04:AMPARAMS|DCode=48|XSize=51.3mil|YSize=76.9mil|CornerRadius=9.4mil|HoleSize=0mil|Usage=FLASHONLY|Rotation=180.000|XOffset=0mil|YOffset=0mil|HoleType=Round|Shape=RoundedRectangle|*
%AMROUNDEDRECTD48*
21,1,0.0513,0.0581,0,0,180.0*
21,1,0.0325,0.0769,0,0,180.0*
1,1,0.0188,-0.0162,0.0290*
1,1,0.0188,0.0162,0.0290*
1,1,0.0188,0.0162,-0.0290*
1,1,0.0188,-0.0162,-0.0290*
%
%ADD48ROUNDEDRECTD48*%
G04:AMPARAMS|DCode=49|XSize=51.3mil|YSize=76.9mil|CornerRadius=9.4mil|HoleSize=0mil|Usage=FLASHONLY|Rotation=180.000|XOffset=0mil|YOffset=0mil|HoleType=Round|Shape=RoundedRectangle|*
%AMROUNDEDRECTD49*
21,1,0.0513,0.0581,0,0,180.0*
21,1,0.0325,0.0769,0,0,180.0*
1,1,0.0188,-0.0162,0.0290*
1,1,0.0188,0.0162,0.0290*
1,1,0.0188,0.0162,-0.0290*
1,1,0.0188,-0.0162,-0.0290*
%
%ADD49ROUNDEDRECTD49*%
%ADD50C,0.1080*%
G04:AMPARAMS|DCode=51|XSize=108mil|YSize=108mil|CornerRadius=29mil|HoleSize=0mil|Usage=FLASHONLY|Rotation=90.000|XOffset=0mil|YOffset=0mil|HoleType=Round|Shape=RoundedRectangle|*
%AMROUNDEDRECTD51*
21,1,0.1080,0.0500,0,0,90.0*
21,1,0.0500,0.1080,0,0,90.0*
1,1,0.0580,0.0250,0.0250*
1,1,0.0580,0.0250,-0.0250*
1,1,0.0580,-0.0250,-0.0250*
1,1,0.0580,-0.0250,0.0250*
%
%ADD51ROUNDEDRECTD51*%
%ADD52C,0.2600*%
%ADD53R,0.0867X0.0671*%
%ADD54O,0.0867X0.0671*%
%ADD55R,0.0671X0.0671*%
%ADD56C,0.0671*%
G04:AMPARAMS|DCode=57|XSize=108mil|YSize=108mil|CornerRadius=29mil|HoleSize=0mil|Usage=FLASHONLY|Rotation=0.000|XOffset=0mil|YOffset=0mil|HoleType=Round|Shape=RoundedRectangle|*
%AMROUNDEDRECTD57*
21,1,0.1080,0.0500,0,0,0.0*
21,1,0.0500,0.1080,0,0,0.0*
1,1,0.0580,0.0250,-0.0250*
1,1,0.0580,-0.0250,-0.0250*
1,1,0.0580,-0.0250,0.0250*
1,1,0.0580,0.0250,0.0250*
%
%ADD57ROUNDEDRECTD57*%
%ADD58C,0.0356*%
%ADD59R,0.0651X0.0533*%
%ADD60R,0.0690X0.0612*%
D20*
X7195Y11319D02*
Y11358D01*
X7687Y11319D02*
Y11358D01*
X7707Y9705D02*
Y9744D01*
X7175Y9705D02*
Y9744D01*
X4970Y11398D02*
Y11437D01*
X5502Y11398D02*
Y11437D01*
Y9626D02*
Y9665D01*
X4970Y9626D02*
Y9665D01*
D38*
X8616Y11799D02*
X8716Y11899D01*
X8916D01*
X9016Y11799D01*
Y11399D01*
X8916Y11299D01*
X8716D01*
X8616Y11399D01*
X8016Y11899D02*
X8416D01*
Y11599D01*
X8216Y11699D01*
X8116D01*
X8016Y11599D01*
Y11399D01*
X8116Y11299D01*
X8316D01*
X8416Y11399D01*
X8655Y9909D02*
X8755Y10009D01*
X8955D01*
X9055Y9909D01*
Y9509D01*
X8955Y9409D01*
X8755D01*
X8655Y9509D01*
X8055Y10009D02*
X8255Y9909D01*
X8455Y9709D01*
Y9509D01*
X8355Y9409D01*
X8155D01*
X8055Y9509D01*
Y9609D01*
X8155Y9709D01*
X8455D01*
X4246Y11642D02*
X4346Y11742D01*
X4546D01*
X4646Y11642D01*
Y11242D01*
X4546Y11142D01*
X4346D01*
X4246Y11242D01*
X3746Y11142D02*
Y11742D01*
X4046Y11442D01*
X3646D01*
X4652Y7807D02*
X4552Y7707D01*
X4352D01*
X4252Y7807D01*
Y8207D01*
X4352Y8307D01*
X4552D01*
X4652Y8207D01*
X4852Y7807D02*
X4952Y7707D01*
X5152D01*
X5252Y7807D01*
Y7907D01*
X5152Y8007D01*
X5052D01*
X5152D01*
X5252Y8107D01*
Y8207D01*
X5152Y8307D01*
X4952D01*
X4852Y8207D01*
M02*
