%FSLAX24Y24*%
%MOIN*%
G70*
G01*
G75*
G04 Layer_Physical_Order=2*
G04 Layer_Color=16711680*
%ADD10R,0.0433X0.0433*%
G04:AMPARAMS|DCode=11|XSize=23.6mil|YSize=39.4mil|CornerRadius=3mil|HoleSize=0mil|Usage=FLASHONLY|Rotation=180.000|XOffset=0mil|YOffset=0mil|HoleType=Round|Shape=RoundedRectangle|*
%AMROUNDEDRECTD11*
21,1,0.0236,0.0335,0,0,180.0*
21,1,0.0177,0.0394,0,0,180.0*
1,1,0.0059,-0.0089,0.0167*
1,1,0.0059,0.0089,0.0167*
1,1,0.0059,0.0089,-0.0167*
1,1,0.0059,-0.0089,-0.0167*
%
%ADD11ROUNDEDRECTD11*%
%ADD12R,0.0433X0.0433*%
%ADD13R,0.0295X0.0236*%
%ADD14O,0.0827X0.0138*%
G04:AMPARAMS|DCode=15|XSize=90.6mil|YSize=70.9mil|CornerRadius=8.9mil|HoleSize=0mil|Usage=FLASHONLY|Rotation=90.000|XOffset=0mil|YOffset=0mil|HoleType=Round|Shape=RoundedRectangle|*
%AMROUNDEDRECTD15*
21,1,0.0906,0.0532,0,0,90.0*
21,1,0.0728,0.0709,0,0,90.0*
1,1,0.0177,0.0266,0.0364*
1,1,0.0177,0.0266,-0.0364*
1,1,0.0177,-0.0266,-0.0364*
1,1,0.0177,-0.0266,0.0364*
%
%ADD15ROUNDEDRECTD15*%
G04:AMPARAMS|DCode=16|XSize=90.6mil|YSize=70.9mil|CornerRadius=8.9mil|HoleSize=0mil|Usage=FLASHONLY|Rotation=180.000|XOffset=0mil|YOffset=0mil|HoleType=Round|Shape=RoundedRectangle|*
%AMROUNDEDRECTD16*
21,1,0.0906,0.0532,0,0,180.0*
21,1,0.0728,0.0709,0,0,180.0*
1,1,0.0177,-0.0364,0.0266*
1,1,0.0177,0.0364,0.0266*
1,1,0.0177,0.0364,-0.0266*
1,1,0.0177,-0.0364,-0.0266*
%
%ADD16ROUNDEDRECTD16*%
G04:AMPARAMS|DCode=17|XSize=137.8mil|YSize=68.9mil|CornerRadius=8.6mil|HoleSize=0mil|Usage=FLASHONLY|Rotation=180.000|XOffset=0mil|YOffset=0mil|HoleType=Round|Shape=RoundedRectangle|*
%AMROUNDEDRECTD17*
21,1,0.1378,0.0517,0,0,180.0*
21,1,0.1206,0.0689,0,0,180.0*
1,1,0.0172,-0.0603,0.0258*
1,1,0.0172,0.0603,0.0258*
1,1,0.0172,0.0603,-0.0258*
1,1,0.0172,-0.0603,-0.0258*
%
%ADD17ROUNDEDRECTD17*%
G04:AMPARAMS|DCode=18|XSize=43.3mil|YSize=68.9mil|CornerRadius=5.4mil|HoleSize=0mil|Usage=FLASHONLY|Rotation=180.000|XOffset=0mil|YOffset=0mil|HoleType=Round|Shape=RoundedRectangle|*
%AMROUNDEDRECTD18*
21,1,0.0433,0.0581,0,0,180.0*
21,1,0.0325,0.0689,0,0,180.0*
1,1,0.0108,-0.0162,0.0290*
1,1,0.0108,0.0162,0.0290*
1,1,0.0108,0.0162,-0.0290*
1,1,0.0108,-0.0162,-0.0290*
%
%ADD18ROUNDEDRECTD18*%
G04:AMPARAMS|DCode=19|XSize=43.3mil|YSize=68.9mil|CornerRadius=5.4mil|HoleSize=0mil|Usage=FLASHONLY|Rotation=180.000|XOffset=0mil|YOffset=0mil|HoleType=Round|Shape=RoundedRectangle|*
%AMROUNDEDRECTD19*
21,1,0.0433,0.0581,0,0,180.0*
21,1,0.0325,0.0689,0,0,180.0*
1,1,0.0108,-0.0162,0.0290*
1,1,0.0108,0.0162,0.0290*
1,1,0.0108,0.0162,-0.0290*
1,1,0.0108,-0.0162,-0.0290*
%
%ADD19ROUNDEDRECTD19*%
%ADD20C,0.0079*%
%ADD21C,0.0433*%
%ADD22C,0.0138*%
%ADD23C,0.1000*%
G04:AMPARAMS|DCode=24|XSize=100mil|YSize=100mil|CornerRadius=25mil|HoleSize=0mil|Usage=FLASHONLY|Rotation=90.000|XOffset=0mil|YOffset=0mil|HoleType=Round|Shape=RoundedRectangle|*
%AMROUNDEDRECTD24*
21,1,0.1000,0.0500,0,0,90.0*
21,1,0.0500,0.1000,0,0,90.0*
1,1,0.0500,0.0250,0.0250*
1,1,0.0500,0.0250,-0.0250*
1,1,0.0500,-0.0250,-0.0250*
1,1,0.0500,-0.0250,0.0250*
%
%ADD24ROUNDEDRECTD24*%
%ADD25C,0.2520*%
%ADD26R,0.0787X0.0591*%
%ADD27O,0.0787X0.0591*%
%ADD28R,0.0591X0.0591*%
%ADD29C,0.0591*%
G04:AMPARAMS|DCode=30|XSize=100mil|YSize=100mil|CornerRadius=25mil|HoleSize=0mil|Usage=FLASHONLY|Rotation=0.000|XOffset=0mil|YOffset=0mil|HoleType=Round|Shape=RoundedRectangle|*
%AMROUNDEDRECTD30*
21,1,0.1000,0.0500,0,0,0.0*
21,1,0.0500,0.1000,0,0,0.0*
1,1,0.0500,0.0250,-0.0250*
1,1,0.0500,-0.0250,-0.0250*
1,1,0.0500,-0.0250,0.0250*
1,1,0.0500,0.0250,0.0250*
%
%ADD30ROUNDEDRECTD30*%
%ADD31C,0.0276*%
%ADD32R,0.0571X0.0453*%
%ADD33R,0.0610X0.0532*%
G36*
X18167Y141D02*
X141D01*
Y25253D01*
X18167D01*
Y141D01*
D02*
G37*
%LPC*%
G36*
X1800Y9698D02*
X1360D01*
X1367Y9645D01*
X1407Y9549D01*
X1470Y9466D01*
X1553Y9403D01*
X1649Y9363D01*
X1752Y9349D01*
X1800D01*
Y9698D01*
D02*
G37*
G36*
X5186Y9618D02*
X4831D01*
Y9302D01*
X5186D01*
Y9618D01*
D02*
G37*
G36*
X7391Y9696D02*
X7036D01*
Y9381D01*
X7391D01*
Y9696D01*
D02*
G37*
G36*
X2341Y9698D02*
X1900D01*
Y9349D01*
X1949D01*
X2052Y9363D01*
X2148Y9403D01*
X2231Y9466D01*
X2294Y9549D01*
X2334Y9645D01*
X2341Y9698D01*
D02*
G37*
G36*
X5186Y9202D02*
X4831D01*
Y8886D01*
X5186D01*
Y9202D01*
D02*
G37*
G36*
X15197Y9895D02*
X15046Y9875D01*
X14905Y9817D01*
X14784Y9724D01*
X14691Y9603D01*
X14633Y9462D01*
X14613Y9311D01*
X14633Y9160D01*
X14691Y9019D01*
X14784Y8898D01*
X14905Y8805D01*
X15046Y8747D01*
X15197Y8727D01*
X15348Y8747D01*
X15489Y8805D01*
X15610Y8898D01*
X15702Y9019D01*
X15761Y9160D01*
X15781Y9311D01*
X15761Y9462D01*
X15702Y9603D01*
X15610Y9724D01*
X15489Y9817D01*
X15348Y9875D01*
X15197Y9895D01*
D02*
G37*
G36*
X7846Y9281D02*
X7491D01*
Y8965D01*
X7846D01*
Y9281D01*
D02*
G37*
G36*
X7391D02*
X7036D01*
Y8965D01*
X7391D01*
Y9281D01*
D02*
G37*
G36*
X5620Y11368D02*
X4852D01*
Y10679D01*
X5116D01*
Y10384D01*
X4852D01*
Y9695D01*
X5544D01*
Y9618D01*
X5286D01*
Y9252D01*
Y8886D01*
X5544D01*
Y2958D01*
X4378Y1793D01*
X4310Y1821D01*
X4213Y1834D01*
X4115Y1821D01*
X4024Y1783D01*
X3946Y1723D01*
X3886Y1645D01*
X3848Y1554D01*
X3835Y1457D01*
X3848Y1359D01*
X3886Y1268D01*
X3946Y1190D01*
X4024Y1130D01*
X4115Y1092D01*
X4213Y1079D01*
X4310Y1092D01*
X4401Y1130D01*
X4479Y1190D01*
X4539Y1268D01*
X4577Y1359D01*
X4590Y1457D01*
X4577Y1554D01*
X4549Y1623D01*
X5750Y2823D01*
X5750Y2823D01*
X5776Y2863D01*
X5785Y2909D01*
X5785Y2909D01*
Y9949D01*
X5776Y9995D01*
X5750Y10035D01*
X5750Y10035D01*
X5660Y10125D01*
X5621Y10151D01*
X5620Y10151D01*
Y10273D01*
X5804D01*
X5828Y10238D01*
X5900Y10190D01*
X5984Y10173D01*
X6069Y10190D01*
X6140Y10238D01*
X6188Y10309D01*
X6205Y10394D01*
X6188Y10478D01*
X6140Y10550D01*
X6069Y10598D01*
X5984Y10614D01*
X5900Y10598D01*
X5828Y10550D01*
X5804Y10514D01*
X5364D01*
X5364Y10514D01*
X5357Y10520D01*
Y10679D01*
X5620D01*
Y11368D01*
D02*
G37*
G36*
X15197Y11273D02*
X15046Y11253D01*
X14905Y11195D01*
X14784Y11102D01*
X14691Y10981D01*
X14633Y10840D01*
X14613Y10689D01*
X14633Y10538D01*
X14691Y10397D01*
X14784Y10276D01*
X14905Y10183D01*
X15046Y10125D01*
X15197Y10105D01*
X15348Y10125D01*
X15489Y10183D01*
X15610Y10276D01*
X15702Y10397D01*
X15761Y10538D01*
X15781Y10689D01*
X15761Y10840D01*
X15702Y10981D01*
X15610Y11102D01*
X15489Y11195D01*
X15348Y11253D01*
X15197Y11273D01*
D02*
G37*
G36*
X7391Y11643D02*
X7056D01*
Y11367D01*
X7391D01*
Y11643D01*
D02*
G37*
G36*
X7805Y11289D02*
X7077D01*
Y10679D01*
X7321D01*
Y10463D01*
X7267D01*
X7251Y10479D01*
X7211Y10505D01*
X7165Y10514D01*
X7165Y10514D01*
X6952D01*
X6928Y10550D01*
X6856Y10598D01*
X6772Y10614D01*
X6687Y10598D01*
X6616Y10550D01*
X6568Y10478D01*
X6551Y10394D01*
X6568Y10309D01*
X6616Y10238D01*
X6687Y10190D01*
X6772Y10173D01*
X6856Y10190D01*
X6928Y10238D01*
X6952Y10273D01*
X7057D01*
Y9774D01*
X7825D01*
Y10463D01*
X7561D01*
Y10679D01*
X7805D01*
Y11289D01*
D02*
G37*
G36*
X2323Y11122D02*
X1378D01*
Y10374D01*
X2323D01*
Y10628D01*
X2795D01*
X3891Y9531D01*
X3891Y9531D01*
X3930Y9505D01*
X3976Y9496D01*
X3976Y9496D01*
X4265D01*
X4288Y9460D01*
X4360Y9412D01*
X4444Y9395D01*
X4529Y9412D01*
X4601Y9460D01*
X4648Y9532D01*
X4665Y9616D01*
X4648Y9701D01*
X4601Y9772D01*
X4529Y9820D01*
X4444Y9837D01*
X4360Y9820D01*
X4288Y9772D01*
X4265Y9737D01*
X4026D01*
X2930Y10833D01*
X2891Y10859D01*
X2844Y10868D01*
X2844Y10868D01*
X2323D01*
Y11122D01*
D02*
G37*
G36*
X7846Y9696D02*
X7491D01*
Y9381D01*
X7846D01*
Y9696D01*
D02*
G37*
G36*
X1949Y10147D02*
X1900D01*
Y9798D01*
X2341D01*
X2334Y9851D01*
X2294Y9947D01*
X2231Y10030D01*
X2148Y10093D01*
X2052Y10133D01*
X1949Y10147D01*
D02*
G37*
G36*
X1800D02*
X1752D01*
X1649Y10133D01*
X1553Y10093D01*
X1470Y10030D01*
X1407Y9947D01*
X1367Y9851D01*
X1360Y9798D01*
X1800D01*
Y10147D01*
D02*
G37*
G36*
X1949Y9125D02*
X1752D01*
X1654Y9112D01*
X1563Y9075D01*
X1485Y9015D01*
X1425Y8937D01*
X1388Y8846D01*
X1375Y8748D01*
X1388Y8650D01*
X1425Y8559D01*
X1485Y8481D01*
X1563Y8421D01*
X1654Y8384D01*
X1752Y8371D01*
X1949D01*
X2046Y8384D01*
X2137Y8421D01*
X2216Y8481D01*
X2276Y8559D01*
X2304Y8628D01*
X4200D01*
X4224Y8592D01*
X4296Y8544D01*
X4380Y8527D01*
X4465Y8544D01*
X4537Y8592D01*
X4584Y8664D01*
X4601Y8748D01*
X4584Y8833D01*
X4537Y8904D01*
X4465Y8952D01*
X4380Y8969D01*
X4296Y8952D01*
X4224Y8904D01*
X4200Y8868D01*
X2304D01*
X2276Y8937D01*
X2216Y9015D01*
X2137Y9075D01*
X2046Y9112D01*
X1949Y9125D01*
D02*
G37*
G36*
X7213Y1834D02*
X7115Y1821D01*
X7024Y1783D01*
X6946Y1723D01*
X6886Y1645D01*
X6848Y1554D01*
X6835Y1457D01*
X6848Y1359D01*
X6886Y1268D01*
X6946Y1190D01*
X7024Y1130D01*
X7115Y1092D01*
X7213Y1079D01*
X7310Y1092D01*
X7401Y1130D01*
X7479Y1190D01*
X7539Y1268D01*
X7577Y1359D01*
X7590Y1457D01*
X7577Y1554D01*
X7539Y1645D01*
X7479Y1723D01*
X7401Y1783D01*
X7310Y1821D01*
X7213Y1834D01*
D02*
G37*
G36*
X6213D02*
X6115Y1821D01*
X6024Y1783D01*
X5946Y1723D01*
X5886Y1645D01*
X5848Y1554D01*
X5835Y1457D01*
X5848Y1359D01*
X5886Y1268D01*
X5946Y1190D01*
X6024Y1130D01*
X6115Y1092D01*
X6213Y1079D01*
X6310Y1092D01*
X6401Y1130D01*
X6479Y1190D01*
X6539Y1268D01*
X6577Y1359D01*
X6590Y1457D01*
X6577Y1554D01*
X6539Y1645D01*
X6479Y1723D01*
X6401Y1783D01*
X6310Y1821D01*
X6213Y1834D01*
D02*
G37*
G36*
X9587Y1831D02*
X8839D01*
Y1083D01*
X9587D01*
Y1831D01*
D02*
G37*
G36*
X8213Y1834D02*
X8115Y1821D01*
X8024Y1783D01*
X7946Y1723D01*
X7886Y1645D01*
X7848Y1554D01*
X7835Y1457D01*
X7848Y1359D01*
X7886Y1268D01*
X7946Y1190D01*
X8024Y1130D01*
X8115Y1092D01*
X8213Y1079D01*
X8310Y1092D01*
X8401Y1130D01*
X8479Y1190D01*
X8539Y1268D01*
X8577Y1359D01*
X8590Y1457D01*
X8577Y1554D01*
X8539Y1645D01*
X8479Y1723D01*
X8401Y1783D01*
X8310Y1821D01*
X8213Y1834D01*
D02*
G37*
G36*
X16535Y2918D02*
X16325Y2901D01*
X16121Y2852D01*
X15926Y2771D01*
X15746Y2661D01*
X15586Y2524D01*
X15449Y2364D01*
X15339Y2184D01*
X15258Y1990D01*
X15209Y1785D01*
X15193Y1575D01*
X15209Y1365D01*
X15258Y1160D01*
X15339Y965D01*
X15449Y786D01*
X15586Y625D01*
X15746Y489D01*
X15926Y378D01*
X16121Y298D01*
X16325Y249D01*
X16535Y232D01*
X16745Y249D01*
X16950Y298D01*
X17145Y378D01*
X17325Y489D01*
X17485Y625D01*
X17622Y786D01*
X17732Y965D01*
X17812Y1160D01*
X17862Y1365D01*
X17878Y1575D01*
X17862Y1785D01*
X17812Y1990D01*
X17732Y2184D01*
X17622Y2364D01*
X17485Y2524D01*
X17325Y2661D01*
X17145Y2771D01*
X16950Y2852D01*
X16745Y2901D01*
X16535Y2918D01*
D02*
G37*
G36*
X1575D02*
X1365Y2901D01*
X1160Y2852D01*
X965Y2771D01*
X786Y2661D01*
X625Y2524D01*
X489Y2364D01*
X378Y2184D01*
X298Y1990D01*
X249Y1785D01*
X232Y1575D01*
X249Y1365D01*
X298Y1160D01*
X378Y965D01*
X489Y786D01*
X625Y625D01*
X786Y489D01*
X965Y378D01*
X1160Y298D01*
X1365Y249D01*
X1575Y232D01*
X1785Y249D01*
X1990Y298D01*
X2184Y378D01*
X2364Y489D01*
X2524Y625D01*
X2661Y786D01*
X2771Y965D01*
X2852Y1160D01*
X2901Y1365D01*
X2918Y1575D01*
X2901Y1785D01*
X2852Y1990D01*
X2771Y2184D01*
X2661Y2364D01*
X2524Y2524D01*
X2364Y2661D01*
X2184Y2771D01*
X1990Y2852D01*
X1785Y2901D01*
X1575Y2918D01*
D02*
G37*
G36*
X5605Y1407D02*
X5263D01*
Y1065D01*
X5316Y1072D01*
X5412Y1111D01*
X5494Y1175D01*
X5558Y1257D01*
X5598Y1354D01*
X5605Y1407D01*
D02*
G37*
G36*
X5163D02*
X4820D01*
X4827Y1354D01*
X4867Y1257D01*
X4931Y1175D01*
X5013Y1111D01*
X5109Y1072D01*
X5163Y1065D01*
Y1407D01*
D02*
G37*
G36*
X15147Y6366D02*
X15079Y6359D01*
X14966Y6325D01*
X14862Y6269D01*
X14771Y6194D01*
X14696Y6103D01*
X14640Y5998D01*
X14606Y5885D01*
X14599Y5818D01*
X15147D01*
Y6366D01*
D02*
G37*
G36*
X15795Y5718D02*
X15247D01*
Y5170D01*
X15314Y5176D01*
X15428Y5211D01*
X15532Y5266D01*
X15623Y5341D01*
X15698Y5433D01*
X15754Y5537D01*
X15788Y5650D01*
X15795Y5718D01*
D02*
G37*
G36*
X15447Y8515D02*
X14947D01*
X14861Y8503D01*
X14781Y8470D01*
X14712Y8418D01*
X14660Y8349D01*
X14627Y8269D01*
X14615Y8183D01*
Y7683D01*
X14627Y7597D01*
X14660Y7517D01*
X14712Y7449D01*
X14781Y7396D01*
X14861Y7363D01*
X14947Y7351D01*
X15447D01*
X15533Y7363D01*
X15613Y7396D01*
X15681Y7449D01*
X15734Y7517D01*
X15767Y7597D01*
X15778Y7683D01*
Y8183D01*
X15767Y8269D01*
X15734Y8349D01*
X15681Y8418D01*
X15613Y8470D01*
X15533Y8503D01*
X15447Y8515D01*
D02*
G37*
G36*
X15247Y6366D02*
Y5818D01*
X15795D01*
X15788Y5885D01*
X15754Y5998D01*
X15698Y6103D01*
X15623Y6194D01*
X15532Y6269D01*
X15428Y6325D01*
X15314Y6359D01*
X15247Y6366D01*
D02*
G37*
G36*
X5263Y1849D02*
Y1507D01*
X5605D01*
X5598Y1560D01*
X5558Y1656D01*
X5494Y1739D01*
X5412Y1802D01*
X5316Y1842D01*
X5263Y1849D01*
D02*
G37*
G36*
X5163D02*
X5109Y1842D01*
X5013Y1802D01*
X4931Y1739D01*
X4867Y1656D01*
X4827Y1560D01*
X4820Y1507D01*
X5163D01*
Y1849D01*
D02*
G37*
G36*
X15147Y5718D02*
X14599D01*
X14606Y5650D01*
X14640Y5537D01*
X14696Y5433D01*
X14771Y5341D01*
X14862Y5266D01*
X14966Y5211D01*
X15079Y5176D01*
X15147Y5170D01*
Y5718D01*
D02*
G37*
G36*
X15447Y4971D02*
X14947D01*
X14861Y4960D01*
X14781Y4927D01*
X14712Y4874D01*
X14660Y4806D01*
X14627Y4726D01*
X14615Y4640D01*
Y4140D01*
X14627Y4054D01*
X14660Y3974D01*
X14712Y3905D01*
X14781Y3853D01*
X14861Y3819D01*
X14947Y3808D01*
X15447D01*
X15533Y3819D01*
X15613Y3853D01*
X15681Y3905D01*
X15734Y3974D01*
X15767Y4054D01*
X15778Y4140D01*
Y4640D01*
X15767Y4726D01*
X15734Y4806D01*
X15681Y4874D01*
X15613Y4927D01*
X15533Y4960D01*
X15447Y4971D01*
D02*
G37*
G36*
X9399Y22233D02*
X8846D01*
Y22033D01*
X8858Y21942D01*
X8893Y21857D01*
X8949Y21784D01*
X9022Y21728D01*
X9107Y21692D01*
X9199Y21680D01*
X9399D01*
Y22233D01*
D02*
G37*
G36*
X6292D02*
X5739D01*
Y21680D01*
X5939D01*
X6030Y21692D01*
X6115Y21728D01*
X6189Y21784D01*
X6245Y21857D01*
X6280Y21942D01*
X6292Y22033D01*
Y22233D01*
D02*
G37*
G36*
X13159D02*
X12606D01*
Y22033D01*
X12618Y21942D01*
X12653Y21857D01*
X12709Y21784D01*
X12782Y21728D01*
X12867Y21692D01*
X12959Y21680D01*
X13159D01*
Y22233D01*
D02*
G37*
G36*
X10052D02*
X9499D01*
Y21680D01*
X9699D01*
X9790Y21692D01*
X9875Y21728D01*
X9948Y21784D01*
X10005Y21857D01*
X10040Y21942D01*
X10052Y22033D01*
Y22233D01*
D02*
G37*
G36*
X15186Y21543D02*
X15119Y21536D01*
X15006Y21502D01*
X14901Y21446D01*
X14810Y21371D01*
X14735Y21280D01*
X14679Y21176D01*
X14645Y21063D01*
X14638Y20995D01*
X15186D01*
Y21543D01*
D02*
G37*
G36*
X15834Y20895D02*
X15286D01*
Y20347D01*
X15354Y20354D01*
X15467Y20388D01*
X15571Y20444D01*
X15663Y20519D01*
X15738Y20610D01*
X15793Y20714D01*
X15828Y20827D01*
X15834Y20895D01*
D02*
G37*
G36*
X5639Y22233D02*
X5086D01*
Y22033D01*
X5098Y21942D01*
X5133Y21857D01*
X5189Y21784D01*
X5262Y21728D01*
X5348Y21692D01*
X5439Y21680D01*
X5639D01*
Y22233D01*
D02*
G37*
G36*
X15286Y21543D02*
Y20995D01*
X15834D01*
X15828Y21063D01*
X15793Y21176D01*
X15738Y21280D01*
X15663Y21371D01*
X15571Y21446D01*
X15467Y21502D01*
X15354Y21536D01*
X15286Y21543D01*
D02*
G37*
G36*
X13812Y22233D02*
X13259D01*
Y21680D01*
X13459D01*
X13550Y21692D01*
X13635Y21728D01*
X13708Y21784D01*
X13764Y21857D01*
X13800Y21942D01*
X13812Y22033D01*
Y22233D01*
D02*
G37*
G36*
X9699Y22886D02*
X9499D01*
Y22333D01*
X10052D01*
Y22533D01*
X10040Y22625D01*
X10005Y22710D01*
X9948Y22783D01*
X9875Y22839D01*
X9790Y22874D01*
X9699Y22886D01*
D02*
G37*
G36*
X9399D02*
X9199D01*
X9107Y22874D01*
X9022Y22839D01*
X8949Y22783D01*
X8893Y22710D01*
X8858Y22625D01*
X8846Y22533D01*
Y22333D01*
X9399D01*
Y22886D01*
D02*
G37*
G36*
X13459D02*
X13259D01*
Y22333D01*
X13812D01*
Y22533D01*
X13800Y22625D01*
X13764Y22710D01*
X13708Y22783D01*
X13635Y22839D01*
X13550Y22874D01*
X13459Y22886D01*
D02*
G37*
G36*
X13159D02*
X12959D01*
X12867Y22874D01*
X12782Y22839D01*
X12709Y22783D01*
X12653Y22710D01*
X12618Y22625D01*
X12606Y22533D01*
Y22333D01*
X13159D01*
Y22886D01*
D02*
G37*
G36*
X16535Y24965D02*
X16325Y24948D01*
X16121Y24899D01*
X15926Y24818D01*
X15746Y24708D01*
X15586Y24571D01*
X15449Y24411D01*
X15339Y24232D01*
X15258Y24037D01*
X15209Y23832D01*
X15193Y23622D01*
X15209Y23412D01*
X15258Y23207D01*
X15339Y23012D01*
X15449Y22833D01*
X15586Y22673D01*
X15746Y22536D01*
X15926Y22426D01*
X16121Y22345D01*
X16325Y22296D01*
X16535Y22279D01*
X16745Y22296D01*
X16950Y22345D01*
X17145Y22426D01*
X17325Y22536D01*
X17485Y22673D01*
X17622Y22833D01*
X17732Y23012D01*
X17812Y23207D01*
X17862Y23412D01*
X17878Y23622D01*
X17862Y23832D01*
X17812Y24037D01*
X17732Y24232D01*
X17622Y24411D01*
X17485Y24571D01*
X17325Y24708D01*
X17145Y24818D01*
X16950Y24899D01*
X16745Y24948D01*
X16535Y24965D01*
D02*
G37*
G36*
X1575D02*
X1365Y24948D01*
X1160Y24899D01*
X965Y24818D01*
X786Y24708D01*
X625Y24571D01*
X489Y24411D01*
X378Y24232D01*
X298Y24037D01*
X249Y23832D01*
X232Y23622D01*
X249Y23412D01*
X298Y23207D01*
X378Y23012D01*
X489Y22833D01*
X625Y22673D01*
X786Y22536D01*
X965Y22426D01*
X1160Y22345D01*
X1365Y22296D01*
X1575Y22279D01*
X1785Y22296D01*
X1990Y22345D01*
X2184Y22426D01*
X2364Y22536D01*
X2524Y22673D01*
X2661Y22833D01*
X2771Y23012D01*
X2852Y23207D01*
X2901Y23412D01*
X2918Y23622D01*
X2901Y23832D01*
X2852Y24037D01*
X2771Y24232D01*
X2661Y24411D01*
X2524Y24571D01*
X2364Y24708D01*
X2184Y24818D01*
X1990Y24899D01*
X1785Y24948D01*
X1575Y24965D01*
D02*
G37*
G36*
X5939Y22886D02*
X5739D01*
Y22333D01*
X6292D01*
Y22533D01*
X6280Y22625D01*
X6245Y22710D01*
X6189Y22783D01*
X6115Y22839D01*
X6030Y22874D01*
X5939Y22886D01*
D02*
G37*
G36*
X5639D02*
X5439D01*
X5348Y22874D01*
X5262Y22839D01*
X5189Y22783D01*
X5133Y22710D01*
X5098Y22625D01*
X5086Y22533D01*
Y22333D01*
X5639D01*
Y22886D01*
D02*
G37*
G36*
X5186Y12177D02*
X4831D01*
Y11861D01*
X5186D01*
Y12177D01*
D02*
G37*
G36*
X7826Y12019D02*
X7491D01*
Y11743D01*
X7826D01*
Y12019D01*
D02*
G37*
G36*
X12244Y23644D02*
X12176Y23635D01*
X12167Y23634D01*
X12095Y23604D01*
X12033Y23557D01*
X12033Y23557D01*
X11620Y23144D01*
X11573Y23082D01*
X11543Y23010D01*
X11533Y22933D01*
Y22784D01*
X11418Y22696D01*
X11325Y22575D01*
X11267Y22435D01*
X11247Y22283D01*
X11266Y22140D01*
X10408Y21282D01*
X8588D01*
X8369Y21501D01*
Y21783D01*
X8484Y21871D01*
X8576Y21992D01*
X8635Y22132D01*
X8655Y22283D01*
X8635Y22435D01*
X8576Y22575D01*
X8484Y22696D01*
X8363Y22789D01*
X8222Y22847D01*
X8071Y22867D01*
X7920Y22847D01*
X7779Y22789D01*
X7658Y22696D01*
X7565Y22575D01*
X7507Y22435D01*
X7487Y22283D01*
X7507Y22132D01*
X7565Y21992D01*
X7658Y21871D01*
X7773Y21783D01*
Y21378D01*
X7783Y21301D01*
X7813Y21229D01*
X7860Y21167D01*
X8254Y20774D01*
X8254Y20774D01*
X8316Y20726D01*
X8387Y20697D01*
X8396Y20695D01*
X8465Y20686D01*
X8465Y20686D01*
X10531D01*
X10609Y20697D01*
X10680Y20726D01*
X10742Y20774D01*
X11687Y21719D01*
X11831Y21700D01*
X11982Y21720D01*
X12123Y21778D01*
X12243Y21871D01*
X12336Y21992D01*
X12395Y22132D01*
X12414Y22283D01*
X12395Y22435D01*
X12336Y22575D01*
X12243Y22696D01*
X12149Y22768D01*
X12146Y22827D01*
X12367Y23049D01*
X14247D01*
X16120Y21176D01*
Y13411D01*
X15340Y12632D01*
X15197Y12651D01*
X15046Y12631D01*
X14905Y12572D01*
X14784Y12480D01*
X14691Y12359D01*
X14633Y12218D01*
X14613Y12067D01*
X14633Y11916D01*
X14691Y11775D01*
X14784Y11654D01*
X14905Y11561D01*
X15046Y11503D01*
X15197Y11483D01*
X15348Y11503D01*
X15489Y11561D01*
X15610Y11654D01*
X15702Y11775D01*
X15761Y11916D01*
X15781Y12067D01*
X15762Y12211D01*
X16628Y13077D01*
X16628Y13077D01*
X16675Y13138D01*
X16705Y13210D01*
X16715Y13287D01*
Y21299D01*
X16715Y21299D01*
X16705Y21376D01*
X16675Y21448D01*
X16628Y21510D01*
X16628Y21510D01*
X14581Y23557D01*
X14519Y23604D01*
X14498Y23613D01*
X14447Y23634D01*
X14370Y23644D01*
X12244D01*
X12244Y23644D01*
D02*
G37*
G36*
X5641Y12177D02*
X5286D01*
Y11861D01*
X5641D01*
Y12177D01*
D02*
G37*
G36*
X5186Y11761D02*
X4831D01*
Y11445D01*
X5186D01*
Y11761D01*
D02*
G37*
G36*
X7826Y11643D02*
X7491D01*
Y11367D01*
X7826D01*
Y11643D01*
D02*
G37*
G36*
X7391Y12019D02*
X7056D01*
Y11743D01*
X7391D01*
Y12019D01*
D02*
G37*
G36*
X5641Y11761D02*
X5286D01*
Y11445D01*
X5641D01*
Y11761D01*
D02*
G37*
G36*
X15186Y13848D02*
X14633D01*
Y13648D01*
X14645Y13556D01*
X14681Y13471D01*
X14737Y13398D01*
X14810Y13342D01*
X14895Y13307D01*
X14986Y13295D01*
X15186D01*
Y13848D01*
D02*
G37*
G36*
X15486Y18771D02*
X14986D01*
X14900Y18759D01*
X14820Y18726D01*
X14752Y18673D01*
X14699Y18605D01*
X14666Y18525D01*
X14655Y18439D01*
Y17939D01*
X14666Y17853D01*
X14699Y17773D01*
X14752Y17704D01*
X14820Y17652D01*
X14900Y17619D01*
X14986Y17607D01*
X15486D01*
X15572Y17619D01*
X15652Y17652D01*
X15721Y17704D01*
X15773Y17773D01*
X15806Y17853D01*
X15818Y17939D01*
Y18439D01*
X15806Y18525D01*
X15773Y18605D01*
X15721Y18673D01*
X15652Y18726D01*
X15572Y18759D01*
X15486Y18771D01*
D02*
G37*
G36*
X15236Y17237D02*
X15085Y17217D01*
X14944Y17159D01*
X14823Y17066D01*
X14731Y16945D01*
X14672Y16805D01*
X14652Y16654D01*
X14672Y16502D01*
X14731Y16362D01*
X14823Y16241D01*
X14944Y16148D01*
X15085Y16090D01*
X15236Y16070D01*
X15387Y16090D01*
X15528Y16148D01*
X15649Y16241D01*
X15742Y16362D01*
X15800Y16502D01*
X15820Y16654D01*
X15800Y16805D01*
X15742Y16945D01*
X15649Y17066D01*
X15528Y17159D01*
X15387Y17217D01*
X15236Y17237D01*
D02*
G37*
G36*
X15186Y20895D02*
X14638D01*
X14645Y20827D01*
X14679Y20714D01*
X14735Y20610D01*
X14810Y20519D01*
X14901Y20444D01*
X15006Y20388D01*
X15119Y20354D01*
X15186Y20347D01*
Y20895D01*
D02*
G37*
G36*
X4311Y22867D02*
X4160Y22847D01*
X4019Y22789D01*
X3898Y22696D01*
X3805Y22575D01*
X3747Y22435D01*
X3727Y22283D01*
X3747Y22132D01*
X3805Y21992D01*
X3898Y21871D01*
X4013Y21783D01*
Y20846D01*
X4023Y20769D01*
X4053Y20698D01*
X4100Y20636D01*
X5380Y19356D01*
X5380Y19356D01*
X5442Y19309D01*
X5513Y19279D01*
X5591Y19269D01*
X14735D01*
X14823Y19154D01*
X14944Y19061D01*
X15085Y19003D01*
X15236Y18983D01*
X15387Y19003D01*
X15528Y19061D01*
X15649Y19154D01*
X15742Y19275D01*
X15800Y19416D01*
X15820Y19567D01*
X15800Y19718D01*
X15742Y19859D01*
X15649Y19980D01*
X15528Y20072D01*
X15387Y20131D01*
X15236Y20151D01*
X15085Y20131D01*
X14944Y20072D01*
X14823Y19980D01*
X14735Y19865D01*
X5714D01*
X4609Y20970D01*
Y21783D01*
X4724Y21871D01*
X4817Y21992D01*
X4875Y22132D01*
X4895Y22283D01*
X4875Y22435D01*
X4817Y22575D01*
X4724Y22696D01*
X4603Y22789D01*
X4462Y22847D01*
X4311Y22867D01*
D02*
G37*
G36*
X15186Y14501D02*
X14986D01*
X14895Y14489D01*
X14810Y14453D01*
X14737Y14397D01*
X14681Y14324D01*
X14645Y14239D01*
X14633Y14148D01*
Y13948D01*
X15186D01*
Y14501D01*
D02*
G37*
G36*
X15839Y13848D02*
X15286D01*
Y13295D01*
X15486D01*
X15578Y13307D01*
X15663Y13342D01*
X15736Y13398D01*
X15792Y13471D01*
X15827Y13556D01*
X15839Y13648D01*
Y13848D01*
D02*
G37*
G36*
X15236Y15859D02*
X15085Y15839D01*
X14944Y15781D01*
X14823Y15688D01*
X14731Y15567D01*
X14672Y15427D01*
X14652Y15276D01*
X14672Y15124D01*
X14731Y14984D01*
X14823Y14863D01*
X14944Y14770D01*
X15085Y14712D01*
X15236Y14692D01*
X15387Y14712D01*
X15528Y14770D01*
X15649Y14863D01*
X15742Y14984D01*
X15800Y15124D01*
X15820Y15276D01*
X15800Y15427D01*
X15742Y15567D01*
X15649Y15688D01*
X15528Y15781D01*
X15387Y15839D01*
X15236Y15859D01*
D02*
G37*
G36*
X15486Y14501D02*
X15286D01*
Y13948D01*
X15839D01*
Y14148D01*
X15827Y14239D01*
X15792Y14324D01*
X15736Y14397D01*
X15663Y14453D01*
X15578Y14489D01*
X15486Y14501D01*
D02*
G37*
%LPD*%
D20*
X6772Y10394D02*
X7165D01*
X7441Y10118D01*
X5364Y10394D02*
X5984D01*
X5236Y10266D02*
X5364Y10394D01*
X2844Y10748D02*
X3976Y9616D01*
X4444D01*
X5236Y10266D02*
Y11024D01*
Y10039D02*
Y10266D01*
X1850Y10748D02*
X2844D01*
X5236Y10039D02*
X5574D01*
X5664Y9949D01*
Y2909D02*
Y9949D01*
X4213Y1457D02*
X5664Y2909D01*
X1850Y8748D02*
X4380D01*
X7441Y10118D02*
Y10984D01*
D21*
X15197Y12067D02*
X16417Y13287D01*
Y21299D01*
X14370Y23346D02*
X16417Y21299D01*
X12244Y23346D02*
X14370D01*
X11831Y22933D02*
X12244Y23346D01*
X11831Y22283D02*
Y22933D01*
X4311Y20846D02*
Y22283D01*
Y20846D02*
X5591Y19567D01*
X10531Y20984D02*
X11831Y22283D01*
X8465Y20984D02*
X10531D01*
X8071Y21378D02*
X8465Y20984D01*
X8071Y21378D02*
Y22283D01*
X5591Y19567D02*
X15236D01*
D23*
X4311Y22283D02*
D03*
X8071D02*
D03*
X11831D02*
D03*
X15197Y12067D02*
D03*
Y10689D02*
D03*
Y9311D02*
D03*
X15236Y19567D02*
D03*
Y20945D02*
D03*
Y15276D02*
D03*
Y16654D02*
D03*
X15197Y5768D02*
D03*
D24*
X5689Y22283D02*
D03*
X9449D02*
D03*
X13209D02*
D03*
D25*
X1575Y1575D02*
D03*
Y23622D02*
D03*
X16535Y1575D02*
D03*
Y23622D02*
D03*
D26*
X1850Y10748D02*
D03*
D27*
Y9748D02*
D03*
Y8748D02*
D03*
D28*
X9213Y1457D02*
D03*
D29*
X8213D02*
D03*
X7213D02*
D03*
X6213D02*
D03*
X5213D02*
D03*
X4213D02*
D03*
D30*
X15197Y7933D02*
D03*
X15236Y18189D02*
D03*
Y13898D02*
D03*
X15197Y4390D02*
D03*
D31*
X6772Y10394D02*
D03*
X5984D02*
D03*
X4444Y9616D02*
D03*
X4380Y8748D02*
D03*
D32*
X7441Y11693D02*
D03*
Y10984D02*
D03*
D33*
Y9331D02*
D03*
Y10118D02*
D03*
X5236Y11811D02*
D03*
Y11024D02*
D03*
Y9252D02*
D03*
Y10039D02*
D03*
M02*
